<svg xmlns="http://www.w3.org/2000/svg" width="54.351" height="54.319" viewBox="0 0 54.351 54.319"><g transform="translate(0.516 0.5)"><g transform="translate(0 0)"><path d="M52.317,19.4h0A26.693,26.693,0,0,0,33.016.762h0A26.8,26.8,0,0,0,26.671,0,26.681,26.681,0,0,0,.924,19.7,26.833,26.833,0,0,0,.764,33.013h0A26.664,26.664,0,1,0,52.317,19.4ZM33.672,3.293A24.416,24.416,0,0,1,49.742,18.77a37.1,37.1,0,0,0-19.717,9.649L24.1,22.5a37.124,37.124,0,0,0,6.174-8.836A37.076,37.076,0,0,0,33.672,3.293Zm-7-1.024a24.545,24.545,0,0,1,4.795.473,34.817,34.817,0,0,1-3.218,9.9A34.861,34.861,0,0,1,22.5,20.893L10.237,8.632A24.223,24.223,0,0,1,26.671,2.269ZM3.115,20.289a24.376,24.376,0,0,1,5.521-10.05L20.893,22.5a34.9,34.9,0,0,1-8.247,5.754,34.636,34.636,0,0,1-9.9,3.213A24.564,24.564,0,0,1,3.115,20.289ZM18.77,49.74A24.418,24.418,0,0,1,3.295,33.674a36.9,36.9,0,0,0,10.368-3.395A37.161,37.161,0,0,0,22.5,24.1l5.92,5.92A37.042,37.042,0,0,0,18.77,49.74Zm2.2.639a35.03,35.03,0,0,1,9.059-18.751L43.09,44.693A24.439,24.439,0,0,1,20.967,50.379ZM50.319,32.624a24.326,24.326,0,0,1-5.624,10.465L31.628,30.023a35.106,35.106,0,0,1,18.752-9.056A24.547,24.547,0,0,1,50.319,32.624Z" transform="translate(-0.003 0)" fill="none" stroke="#707070" stroke-width="1"/></g></g></svg>