<svg xmlns="http://www.w3.org/2000/svg" width="67.905" height="67.905" viewBox="0 0 67.905 67.905"><g transform="translate(0.5 0.5)"><path d="M33.452,0A33.452,33.452,0,1,0,66.9,33.452,33.454,33.454,0,0,0,33.452,0Zm9.371,58.937c-.192-2.618-.408-5.861-.42-7.173a6.346,6.346,0,0,0-2.626-5.208c9.661-.809,14.259-6.149,14.589-13.205a13.212,13.212,0,0,0-4.158-10.4,57.163,57.163,0,0,0-.288-8.254c-2.179-.627-7.259,2.055-8.679,3.2-2.994-1.163-10.322-1.57-14.775,0-3.157-2.22-6.751-3.592-8.71-3.209a10.417,10.417,0,0,0-.293,8.248c-2.329,2.128-5.578,4.748-4.7,10.236,1.415,8.047,7.077,12.388,16.193,13.45A2.951,2.951,0,0,0,26.523,49.1c-6.122,2.526-7.872-1.56-8.645-2.624-2.569-3.18-4.876-2.258-5.018-2.208a.4.4,0,0,0-.228.347c.13.686,1.528,1.382,1.6,1.438,1.9,1.413,2.6,3.966,3.032,4.694,2.72,4.472,9.043,2.618,9.1,2.655,0,.391-.044,3.682-.082,6.243a27.185,27.185,0,1,1,16.54-.707Z" fill="none" stroke="#707070" stroke-width="1"/></g></svg>