<svg xmlns="http://www.w3.org/2000/svg" width="63.441" height="88.869" viewBox="0 0 63.441 88.869"><g transform="translate(0 17.498)"><path d="M91.809,117.07,97.756,181.5l25.773,6.94L149.3,181.5l5.948-64.432Z" transform="translate(-91.809 -117.07)" fill="#1758a7" fill-rule="evenodd"/></g><g transform="translate(31.72 22.717)"><path d="M256,144.084V204.7l.058.016,20.857-5.616,4.814-55.017Z" transform="translate(-255.997 -144.084)" fill="#379ad6" fill-rule="evenodd"/></g><g transform="translate(14.5 58.341)"><path d="M184.009,336.991l-.014,0-8.611-2.195-.522-6.321h-8l1.044,12.2,16.178,4.828v-8.54Z" transform="translate(-166.861 -328.479)" fill="#e8e8e7" fill-rule="evenodd"/></g><g transform="translate(31.721 46.421)"><path d="M256,266.782v7.753h.023l9.563.01-.614,10.134-8.95,2.521-.023.007v8.517l.023.007.006,0L272.251,291l2.1-24.213Z" transform="translate(-256.001 -266.782)" fill="#fbfbfa" fill-rule="evenodd"/></g><g transform="translate(13.368 46.421)"><path d="M161,266.782l.609,7.745v.012h17.743v-7.758Z" transform="translate(-161.002 -266.782)" fill="#e5e4e2" fill-rule="evenodd"/></g><g transform="translate(13.369 38.661)"><path d="M161.008,234.377h18.307l.045-.02v-7.74Z" transform="translate(-161.008 -226.617)" fill="#eee" fill-rule="evenodd"/></g><g transform="translate(31.721 38.285)"><path d="M257.074,224.667l-1.073.449V232.8l18.924-8.135Z" transform="translate(-256.001 -224.667)" fill="#fff" fill-rule="evenodd"/></g><g transform="translate(11.666 30.528)"><path d="M152.2,184.515l.959,7.757h19.1v-7.757Z" transform="translate(-152.196 -184.515)" fill="#e7e7e6" fill-rule="evenodd"/></g><g transform="translate(31.721 30.528)"><path d="M256,192.272l19.675-7.757H256Zm.005,0h18.887l.784-7.757Z" transform="translate(-256.001 -184.515)" fill="#f8f8f7" fill-rule="evenodd"/></g><g transform="translate(12.897 0)"><path d="M158.564,38.36h9.792V34.53h-5.6V30.7h5.6V26.5h-9.792ZM172.54,30.7c1.31,1.31,1.993,1.937,3.888,3.832-1.107,0-3.888,0-3.888,0V38.36h9.792V34.53L178.421,30.7h3.911V26.5H172.54Zm23.672-4.2h-9.793v4.2c1.31,1.31,1.994,1.937,3.888,3.832-1.107,0-3.888,0-3.888,0V38.36h9.793V34.53L192.3,30.7h3.912Z" transform="translate(-158.564 -26.499)" fill="#1b1b1b" fill-rule="evenodd"/></g></svg>