<svg xmlns="http://www.w3.org/2000/svg" width="95.631" height="95.631" viewBox="0 0 95.631 95.631"><path d="M247.5,0V7.728h40.088V87.9H247.5v7.728h47.815V0Z" transform="translate(-199.685)" fill="#cd2a00"/><path d="M7.728,87.9V7.728H47.815V0H0V95.631H47.815V87.9Z" fill="#ff5023"/><path d="M135.6,150.856l21.986-6.161L162.451,90H108.9l4.869,54.695Zm16.889-49.673-.609,6.657H126.242l.57,6.884h24.5l-1.9,20.691-13.654,3.764v.038H135.6l-13.768-3.8-.836-10.575h6.656l.494,5.325,7.454,2.015,7.493-2.015.839-8.671H120.651l-1.787-20.311Z" transform="translate(-87.859 -72.613)" fill="#ff5023"/></svg>