<svg xmlns="http://www.w3.org/2000/svg" width="64" height="64" viewBox="0 0 64 64"><g transform="translate(20.109 31.699)"><rect width="64" height="64" transform="translate(-20.109 -31.699)" fill="#fd0"/><rect width="32" height="64" transform="translate(11.891 -31.699)" fill="#f1d000"/><g transform="translate(0 -2)"><path d="M10.613,67.644h6.654V86.293c0,8.405-4.027,11.338-10.463,11.338a17.454,17.454,0,0,1-4.9-.7l.744-5.384a10.975,10.975,0,0,0,3.415.525c2.8,0,4.553-1.27,4.553-5.822Z" transform="translate(-1.901 -67.162)"/><path d="M253.667,84.708a16.86,16.86,0,0,0,7.4,1.839c3.064,0,4.684-1.269,4.684-3.239,0-1.795-1.4-2.889-4.947-4.115-4.9-1.751-8.142-4.465-8.142-8.8,0-5.034,4.246-8.843,11.163-8.843a17.261,17.261,0,0,1,7.53,1.488l-1.489,5.341a13.8,13.8,0,0,0-6.129-1.4c-2.889,0-4.29,1.357-4.29,2.846,0,1.882,1.62,2.714,5.472,4.2,5.209,1.926,7.617,4.64,7.617,8.843,0,4.947-3.765,9.149-11.863,9.149a19.244,19.244,0,0,1-8.361-1.839Z" transform="translate(-232.524 -61.55)"/></g></g></svg>