<svg xmlns="http://www.w3.org/2000/svg" width="88.868" height="66.638" viewBox="0 0 88.868 66.638"><g transform="translate(0 0)"><path d="M102.507,121.837a18.214,18.214,0,0,0-8.051,1.874,17.111,17.111,0,0,1-1.805-4.179,11.161,11.161,0,0,1-.152-3.512,29.554,29.554,0,0,1,1.055-3.776c-.014-.153-.194-.916-1.985-.93s-3.331.347-3.512.819a17.022,17.022,0,0,0-.736,2.652c-.319,1.624-3.582,7.427-5.428,10.453a10.785,10.785,0,0,1-1.235-3.054,11.156,11.156,0,0,1-.153-3.512,29.565,29.565,0,0,1,1.055-3.776c-.014-.153-.194-.916-1.985-.93s-3.331.347-3.512.819-.375,1.582-.736,2.652-4.706,10.73-5.844,13.243c-.583,1.277-1.083,2.3-1.444,3-.055.111-.1.18-.125.236.042-.069.07-.139.07-.111-.305.6-.486.93-.486.93v.014c-.236.444-.5.847-.625.847a5.755,5.755,0,0,1,.042-2.762c.652-3.359,2.193-8.579,2.179-8.759-.014-.1.291-1-1.013-1.485a1.634,1.634,0,0,0-1.832.306c-.111,0-.194.278-.194.278s1.4-5.886-2.693-5.886c-2.554,0-6.108,2.8-7.857,5.345-1.1.6-3.471,1.888-5.969,3.262-.958.528-1.944,1.069-2.874,1.583-.069-.07-.125-.139-.194-.208-4.97-5.3-14.146-9.051-13.757-16.172.139-2.6,1.041-9.412,17.644-17.685,13.6-6.774,24.487-4.914,26.362-.777,2.693,5.9-5.817,16.88-19.948,18.463-5.386.6-8.218-1.485-8.926-2.262-.736-.819-.847-.861-1.125-.708-.458.25-.167.972,0,1.4a8.364,8.364,0,0,0,5.109,4.012c2.6.847,8.912,1.319,16.547-1.638,8.579-3.3,15.256-12.508,13.3-20.212-2-7.829-14.978-10.4-27.264-6.039-7.316,2.6-15.228,6.677-20.92,11.994-6.76,6.33-7.843,11.841-7.4,14.146,1.583,8.176,12.854,13.507,17.366,17.449-.222.125-.43.236-.625.347-2.263,1.124-10.856,5.622-13.007,10.37-2.429,5.386.4,9.245,2.263,9.773,5.8,1.61,11.744-1.291,14.937-6.053s2.8-10.98,1.333-13.812c-.014-.042-.042-.069-.055-.111.583-.347,1.18-.694,1.777-1.041,1.152-.68,2.277-1.305,3.262-1.846a21.553,21.553,0,0,0-1.166,5.913c-.25,3.054,1.013,7.01,2.652,8.565a2.916,2.916,0,0,0,2.138.694c1.916,0,2.776-1.583,3.734-3.471,1.18-2.3,2.221-4.984,2.221-4.984s-1.3,7.247,2.263,7.247c1.3,0,2.61-1.68,3.193-2.54v.014s.028-.055.1-.166c.139-.208.208-.333.208-.333v-.042c.527-.9,1.68-2.971,3.415-6.385,2.249-4.415,4.4-9.926,4.4-9.926a27.9,27.9,0,0,0,.861,3.582,33.519,33.519,0,0,0,1.86,4.165c-.527.722-.847,1.138-.847,1.138a.043.043,0,0,0,.014.028c-.416.556-.888,1.153-1.374,1.736a48.762,48.762,0,0,0-4.164,5.22,1.418,1.418,0,0,0,.389,1.9,3.377,3.377,0,0,0,2.179.347,9.62,9.62,0,0,0,3.262-.75,11.407,11.407,0,0,0,2.8-1.471,6.265,6.265,0,0,0,2.693-5.525,11.494,11.494,0,0,0-1.013-3.914c.153-.222.32-.459.472-.694A73.793,73.793,0,0,0,88.5,118.8a27.96,27.96,0,0,0,.86,3.581,24.5,24.5,0,0,0,1.582,3.568,15.258,15.258,0,0,0-4.734,6.122c-1.027,2.957-.222,4.289,1.291,4.6a4.66,4.66,0,0,0,2.374-.486,11.019,11.019,0,0,0,3-1.541c1.735-1.277,3.415-3.068,3.3-5.5a10.333,10.333,0,0,0-.75-3.248,16.95,16.95,0,0,1,8.621-1c7.732.9,9.245,5.733,8.954,7.746a5.1,5.1,0,0,1-2.457,3.471c-.542.333-.708.458-.666.708.069.361.319.347.777.264a6.03,6.03,0,0,0,4.206-5.372c.223-4.72-4.317-9.911-12.354-9.87ZM42.912,141.924c-2.554,2.79-6.136,3.845-7.676,2.957-1.652-.957-1-5.067,2.152-8.038a41.142,41.142,0,0,1,6.025-4.5c.375-.222.916-.555,1.583-.958.111-.069.167-.1.167-.1.125-.084.264-.153.4-.236a11.077,11.077,0,0,1-2.652,10.869Zm18.657-12.688c-.888,2.179-2.763,7.732-3.9,7.441-.972-.25-1.569-4.484-.194-8.648a19.132,19.132,0,0,1,3.04-5.566c1.4-1.569,2.943-2.069,3.3-1.444.486.819-1.694,6.858-2.249,8.218Zm15.409,7.358c-.375.194-.722.319-.888.222-.125-.069.153-.333.153-.333s1.929-2.068,2.693-3.013c.444-.555.958-1.208,1.513-1.929,0,.069.014.139.014.222C80.449,134.248,78.061,135.928,76.978,136.594Zm11.883-2.707c-.278-.194-.236-.847.694-2.874a10.818,10.818,0,0,1,2.637-3.4,5.015,5.015,0,0,1,.264,1.5,4.895,4.895,0,0,1-3.6,4.776Z" transform="translate(-26.001 -83.535)" fill="#cf649a"/></g></svg>