<svg xmlns="http://www.w3.org/2000/svg" width="51.702" height="51.631" viewBox="0 0 51.702 51.631"><g transform="translate(0.5 0.317)"><path d="M6.758.183A6.758,6.758,0,1,0,13.513,6.94,6.769,6.769,0,0,0,6.758.183Z" transform="translate(0 0)" fill="none" stroke="#707070" stroke-width="1"/><path d="M15.184,83.531H5.04a.874.874,0,0,0-.874.874v32.652a.874.874,0,0,0,.874.874H15.184a.874.874,0,0,0,.874-.874V84.405A.874.874,0,0,0,15.184,83.531Z" transform="translate(-3.355 -67.117)" fill="none" stroke="#707070" stroke-width="1"/><path d="M109.38,81.557a13.323,13.323,0,0,0-8.966,2.974V82.816a.874.874,0,0,0-.874-.874H89.809a.874.874,0,0,0-.874.874v32.652a.874.874,0,0,0,.874.874H99.944a.874.874,0,0,0,.874-.874V99.313c0-4.635.853-7.508,5.107-7.508,4.192.005,4.506,3.086,4.506,7.785v15.878a.874.874,0,0,0,.874.874h10.139a.874.874,0,0,0,.874-.874V97.556C122.318,90.107,120.848,81.557,109.38,81.557Z" transform="translate(-71.616 -65.528)" fill="none" stroke="#707070" stroke-width="1"/></g></svg>