<svg xmlns="http://www.w3.org/2000/svg" width="123.935" height="111.795" viewBox="0 0 123.935 111.795"><path d="M421.109,114.315c12.94,10.385,20.592,26.837,20.621,44.341-.035,25.52-16.127,47.688-38.921,53.617V151.407H391.542v74.7c34.014-.271,61.443-26.892,61.455-59.647-.008-21.669-12.214-41.63-31.888-52.149Zm-60.431.209c-19.5,10.55-31.584,30.4-31.616,51.939.026,28.563,21.067,53.1,50.188,58.531v-12.7c-22.8-5.93-38.894-28.108-38.921-53.634.027-17.378,7.566-33.729,20.349-44.132Z" transform="translate(-329.063 -114.315)" fill="#181a25"/></svg>