<svg xmlns="http://www.w3.org/2000/svg" width="381.872" height="381.869" viewBox="0 0 381.872 381.869"><path d="M381.621,381.619H0V0H381.621V381.618ZM192.331,149.541V328.255c81.037-.644,146.991-64.656,147.02-142.693-.02-51.805-29.251-99.609-76.287-124.755a126.329,126.329,0,0,1,20.759,21.167,133.8,133.8,0,0,1,15.49,25.485,139.942,139.942,0,0,1,9.7,28.678,141.845,141.845,0,0,1-3.531,74.551,135.709,135.709,0,0,1-19.223,37.906,125.525,125.525,0,0,1-29.432,29.118,115.946,115.946,0,0,1-37.542,17.44V149.541ZM118.493,61.309c-46.577,25.2-75.557,72.807-75.632,124.253.061,68.177,50.556,127.066,120.066,140.025V295.194a115.946,115.946,0,0,1-37.551-17.446,125.528,125.528,0,0,1-29.435-29.129A135.715,135.715,0,0,1,76.721,210.7a142.085,142.085,0,0,1-3.574-74.35,140.014,140.014,0,0,1,9.563-28.51A133.956,133.956,0,0,1,98,82.459,126.538,126.538,0,0,1,118.493,61.309Z" transform="translate(0.126 0.126)" fill="#f2f2f2" stroke="rgba(255,255,255,0.11)" stroke-width="0.25"/></svg>