<svg xmlns="http://www.w3.org/2000/svg" width="71.914" height="51.496" viewBox="0 0 71.914 51.496"><g transform="translate(0.518 -6.867)"><path d="M70.4,11.123a.875.875,0,0,0-.9.079L35.436,36.615,1.382,11.2a.879.879,0,0,0-.9-.08A.86.86,0,0,0,0,11.9v43.7a.865.865,0,0,0,.865.865H70.011a.865.865,0,0,0,.865-.865V11.9A.858.858,0,0,0,70.4,11.123ZM69.146,54.729H1.729V13.619L34.92,38.385a.878.878,0,0,0,1.033,0L69.146,13.619Z" transform="translate(0 1.405)" fill="none" stroke="#707070" stroke-width="1"/><path d="M70.011,7.367H.865A.864.864,0,0,0,.349,8.925l34.572,25.8a.866.866,0,0,0,1.035,0l34.574-25.8a.864.864,0,0,0-.519-1.558ZM35.436,32.95,3.469,9.1H67.407Z" transform="translate(0 0)" fill="none" stroke="#707070" stroke-width="1"/><path d="M32.723,32.2a.883.883,0,0,0-1.05-.52L.63,40.782a.87.87,0,0,0-.621.83v5.763a.856.856,0,0,0,.4.73.863.863,0,0,0,.834.05L32.29,33.284A.859.859,0,0,0,32.723,32.2ZM21.9,36.345,1.737,46V42.259Z" transform="translate(0.003 9.305)" fill="none" stroke="#707070" stroke-width="1"/><path d="M28.037,33.285,59.08,48.156a.868.868,0,0,0,.373.084.867.867,0,0,0,.865-.865V41.613a.872.872,0,0,0-.621-.83L28.654,31.675a.883.883,0,0,0-1.05.52A.859.859,0,0,0,28.037,33.285ZM58.589,42.26V46L38.427,36.347Z" transform="translate(10.558 9.305)" fill="none" stroke="#707070" stroke-width="1"/></g></svg>