<svg xmlns="http://www.w3.org/2000/svg" xmlns:xlink="http://www.w3.org/1999/xlink" width="1920" height="1080" viewBox="0 0 1920 1080"><defs><clipPath id="b"><rect width="1920" height="1080"/></clipPath></defs><g id="a" clip-path="url(#b)"><rect width="1920" height="1080" fill="#fff"/><rect width="1920" height="1080" fill="#242837"/><rect width="1920" height="1080" fill="#242837"/><g transform="translate(1040.435 -966.031) rotate(45)" opacity="0.84"><rect width="149.978" height="2243.355" transform="translate(0 0.123)" fill="#1a1c27"/><rect width="149.978" height="2243.355" transform="translate(174.565 0.123)" fill="#1a1c27"/><rect width="149.978" height="2243.355" transform="translate(339.294 0.123)" fill="#1a1c27"/><rect width="149.978" height="2243.355" transform="translate(508.942 0.123)" fill="#1a1c27"/><rect width="149.978" height="2243.355" transform="translate(678.589 0.123)" fill="#1a1c27"/><rect width="149.978" height="2243.355" transform="translate(848.236 0.123)" fill="#1a1c27"/><rect width="149.978" height="2243.355" transform="translate(1017.883 0.123)" fill="#1a1c27"/><rect width="149.978" height="2243.355" transform="translate(1187.53 0.123)" fill="#1a1c27"/><rect width="149.978" height="2243.355" transform="translate(1357.178 0.123)" fill="#1a1c27"/><rect width="149.978" height="2243.355" transform="translate(1526.825 0.123)" fill="#1a1c27"/><rect width="149.978" height="2243.355" transform="translate(1691.555 0.123)" fill="#1a1c27"/><rect width="149.978" height="2243.355" transform="translate(1866.119 0.123)" fill="#1a1c27"/></g></g></svg>