<svg xmlns="http://www.w3.org/2000/svg" xmlns:xlink="http://www.w3.org/1999/xlink" width="3011.888" height="3011.888" viewBox="0 0 3011.888 3011.888"><defs><linearGradient id="a" x1="5.304" y1="0.179" x2="-2.173" y2="0.679" gradientUnits="objectBoundingBox"><stop offset="0" stop-color="#2759ff"/><stop offset="1" stop-color="#001a71"/></linearGradient></defs><g transform="translate(-3838.056 -1779.056)"><g transform="translate(5424.435 1778.969) rotate(45)"><rect width="149.978" height="2243.355" transform="translate(0 0.123)" fill="url(#a)"/><rect width="149.978" height="2243.355" transform="translate(174.565 0.123)" fill="url(#a)"/><rect width="149.978" height="2243.355" transform="translate(339.294 0.123)" fill="url(#a)"/><rect width="149.978" height="2243.355" transform="translate(508.942 0.123)" fill="url(#a)"/><rect width="149.978" height="2243.355" transform="translate(678.589 0.123)" fill="url(#a)"/><rect width="149.978" height="2243.355" transform="translate(848.236 0.123)" fill="url(#a)"/><rect width="149.978" height="2243.355" transform="translate(1017.883 0.123)" fill="url(#a)"/><rect width="149.978" height="2243.355" transform="translate(1187.53 0.123)" fill="url(#a)"/><rect width="149.978" height="2243.355" transform="translate(1357.178 0.123)" fill="url(#a)"/><rect width="149.978" height="2243.355" transform="translate(1526.825 0.123)" fill="url(#a)"/><rect width="149.978" height="2243.355" transform="translate(1691.555 0.123)" fill="url(#a)"/><rect width="149.978" height="2243.355" transform="translate(1866.119 0.123)" fill="url(#a)"/></g><g transform="translate(4309.882 2863.511) rotate(-45)" opacity="0.05"><path d="M410.27,459.6a152.453,152.453,0,0,1,3.342-23.209c3.888-19.472,4.466-20.809,7.99-19.685,20.961,6.015,28.221,7.321,42.894,7.321,19.685.182,28.95-3.372,35.816-13.852,3.524-5.255,4.283-8.445,3.737-16.1-1.306-15.554-7.26-21.356-46.995-45.689-14.855-8.992-30.439-25.274-37.122-38.58-4.648-9.174-5.772-13.852-6.136-26.976-1.489-35,16.89-61.029,51.794-73.211,16.526-5.62,48.088-7.108,67.044-2.795,20.6,4.678,19.685,2.795,14.673,29.011-2.613,12.546-4.648,22.662-4.83,22.662,0,0-5.195-1.883-11.149-3.919-14.1-5.255-36.393-5.8-44.747-1.124C476.737,258.5,471,267.127,471,275.906c0,14.612,7.777,22.115,46.418,44.2A100.025,100.025,0,0,1,554.9,359.05c4.83,9.934,5.954,14.976,6.683,27.523,2.977,55.987-43.623,90.253-112.885,83.509C431.99,468.411,411.576,462.974,410.27,459.6Z" transform="translate(464.089 15.584)" fill="#fff"/><path d="M347.134,253.6H297.01V204.9h159.7v48.7H406.553V467.032H347.134Z" transform="translate(233.287 16.751)" fill="#fff"/><path d="M358.74,204.9H486.874v46.813H418.159v58.052h65.009v43.076H418.159V422.1h74.274v44.929H358.74Z" transform="translate(359.081 16.751)" fill="#fff"/><path d="M525.778,206.024c0-.729,15.979-1.124,35.3-1.124,19.472,0,35.269.577,35.269,1.519,0,.729,12.637,59.328,27.857,130.109,15.4,70.963,27.857,129.38,27.857,129.775s-12.819.729-28.434.729H595.4q-15.857-92.5-17.619-102.769c-9.66-56.746-18.2-102.435-18.774-101.675a80.062,80.062,0,0,0-3.342,15.341c-2.946,17.407-14.855,80.319-16.13,84.815-.942,2.825.365,3.19,9.265,3.19h10.389c.122,3.706.182,5.772.213,6.167,0,3.19.729,12.546,1.276,20.6.121.972.608,5.772,1.489,14.43h-14.46c-13.4,0-14.49.365-15.432,4.314-2.764,11.969-12.06,54.285-12.06,54.863,0,.365-13,.729-28.768.729-22.115,0-28.434-.547-27.857-2.248C464.687,461.807,525.778,207.33,525.778,206.024Z" transform="translate(572.68 16.751)" fill="#fff"/><path d="M573.917,253.6H521.94V204.9H683.46v48.7H631.483V467.032H573.917Z" transform="translate(691.65 16.751)" fill="#fff"/><g transform="translate(182.53 196.68)"><ellipse cx="45.5" cy="46" rx="45.5" ry="46" transform="translate(91 111.947)" fill="#fff"/><circle cx="45.5" cy="45.5" r="45.5" transform="translate(182 57.947)" fill="#fff"/><g transform="translate(182 166.947)" fill="none" stroke="#fff" stroke-width="4"><circle cx="45.5" cy="45.5" r="45.5" stroke="none"/><circle cx="45.5" cy="45.5" r="43.5" fill="none"/></g><g transform="translate(91 221.947)" fill="none" stroke="#fff" stroke-width="4"><circle cx="45.5" cy="45.5" r="45.5" stroke="none"/><circle cx="45.5" cy="45.5" r="43.5" fill="none"/></g><g transform="translate(91 -0.053)" fill="none" stroke="#fff" stroke-width="4"><circle cx="45.5" cy="45.5" r="45.5" stroke="none"/><circle cx="45.5" cy="45.5" r="43.5" fill="none"/></g><g transform="translate(0 57.947)" fill="none" stroke="#fff" stroke-width="4"><circle cx="45.5" cy="45.5" r="45.5" stroke="none"/><circle cx="45.5" cy="45.5" r="43.5" fill="none"/></g><circle cx="45.5" cy="45.5" r="45.5" transform="translate(0 166.947)" fill="#fff"/></g></g><g transform="translate(4266.882 3863.511) rotate(-45)" opacity="0.05"><path d="M410.27,459.6a152.453,152.453,0,0,1,3.342-23.209c3.888-19.472,4.466-20.809,7.99-19.685,20.961,6.015,28.221,7.321,42.894,7.321,19.685.182,28.95-3.372,35.816-13.852,3.524-5.255,4.283-8.445,3.737-16.1-1.306-15.554-7.26-21.356-46.995-45.689-14.855-8.992-30.439-25.274-37.122-38.58-4.648-9.174-5.772-13.852-6.136-26.976-1.489-35,16.89-61.029,51.794-73.211,16.526-5.62,48.088-7.108,67.044-2.795,20.6,4.678,19.685,2.795,14.673,29.011-2.613,12.546-4.648,22.662-4.83,22.662,0,0-5.195-1.883-11.149-3.919-14.1-5.255-36.393-5.8-44.747-1.124C476.737,258.5,471,267.127,471,275.906c0,14.612,7.777,22.115,46.418,44.2A100.025,100.025,0,0,1,554.9,359.05c4.83,9.934,5.954,14.976,6.683,27.523,2.977,55.987-43.623,90.253-112.885,83.509C431.99,468.411,411.576,462.974,410.27,459.6Z" transform="translate(464.089 15.584)" fill="#fff"/><path d="M347.134,253.6H297.01V204.9h159.7v48.7H406.553V467.032H347.134Z" transform="translate(233.287 16.751)" fill="#fff"/><path d="M358.74,204.9H486.874v46.813H418.159v58.052h65.009v43.076H418.159V422.1h74.274v44.929H358.74Z" transform="translate(359.081 16.751)" fill="#fff"/><path d="M525.778,206.024c0-.729,15.979-1.124,35.3-1.124,19.472,0,35.269.577,35.269,1.519,0,.729,12.637,59.328,27.857,130.109,15.4,70.963,27.857,129.38,27.857,129.775s-12.819.729-28.434.729H595.4q-15.857-92.5-17.619-102.769c-9.66-56.746-18.2-102.435-18.774-101.675a80.062,80.062,0,0,0-3.342,15.341c-2.946,17.407-14.855,80.319-16.13,84.815-.942,2.825.365,3.19,9.265,3.19h10.389c.122,3.706.182,5.772.213,6.167,0,3.19.729,12.546,1.276,20.6.121.972.608,5.772,1.489,14.43h-14.46c-13.4,0-14.49.365-15.432,4.314-2.764,11.969-12.06,54.285-12.06,54.863,0,.365-13,.729-28.768.729-22.115,0-28.434-.547-27.857-2.248C464.687,461.807,525.778,207.33,525.778,206.024Z" transform="translate(572.68 16.751)" fill="#fff"/><path d="M573.917,253.6H521.94V204.9H683.46v48.7H631.483V467.032H573.917Z" transform="translate(691.65 16.751)" fill="#fff"/><g transform="translate(182.53 196.68)"><ellipse cx="45.5" cy="46" rx="45.5" ry="46" transform="translate(91 111.947)" fill="#fff"/><circle cx="45.5" cy="45.5" r="45.5" transform="translate(182 57.947)" fill="#fff"/><g transform="translate(182 166.947)" fill="none" stroke="#fff" stroke-width="4"><circle cx="45.5" cy="45.5" r="45.5" stroke="none"/><circle cx="45.5" cy="45.5" r="43.5" fill="none"/></g><g transform="translate(91 221.947)" fill="none" stroke="#fff" stroke-width="4"><circle cx="45.5" cy="45.5" r="45.5" stroke="none"/><circle cx="45.5" cy="45.5" r="43.5" fill="none"/></g><g transform="translate(91 -0.053)" fill="none" stroke="#fff" stroke-width="4"><circle cx="45.5" cy="45.5" r="45.5" stroke="none"/><circle cx="45.5" cy="45.5" r="43.5" fill="none"/></g><g transform="translate(0 57.947)" fill="none" stroke="#fff" stroke-width="4"><circle cx="45.5" cy="45.5" r="45.5" stroke="none"/><circle cx="45.5" cy="45.5" r="43.5" fill="none"/></g><circle cx="45.5" cy="45.5" r="45.5" transform="translate(0 166.947)" fill="#fff"/></g></g><g transform="translate(5331.882 3751.511) rotate(-45)" opacity="0.05"><path d="M410.27,459.6a152.453,152.453,0,0,1,3.342-23.209c3.888-19.472,4.466-20.809,7.99-19.685,20.961,6.015,28.221,7.321,42.894,7.321,19.685.182,28.95-3.372,35.816-13.852,3.524-5.255,4.283-8.445,3.737-16.1-1.306-15.554-7.26-21.356-46.995-45.689-14.855-8.992-30.439-25.274-37.122-38.58-4.648-9.174-5.772-13.852-6.136-26.976-1.489-35,16.89-61.029,51.794-73.211,16.526-5.62,48.088-7.108,67.044-2.795,20.6,4.678,19.685,2.795,14.673,29.011-2.613,12.546-4.648,22.662-4.83,22.662,0,0-5.195-1.883-11.149-3.919-14.1-5.255-36.393-5.8-44.747-1.124C476.737,258.5,471,267.127,471,275.906c0,14.612,7.777,22.115,46.418,44.2A100.025,100.025,0,0,1,554.9,359.05c4.83,9.934,5.954,14.976,6.683,27.523,2.977,55.987-43.623,90.253-112.885,83.509C431.99,468.411,411.576,462.974,410.27,459.6Z" transform="translate(464.089 15.584)" fill="#fff"/><path d="M347.134,253.6H297.01V204.9h159.7v48.7H406.553V467.032H347.134Z" transform="translate(233.287 16.751)" fill="#fff"/><path d="M358.74,204.9H486.874v46.813H418.159v58.052h65.009v43.076H418.159V422.1h74.274v44.929H358.74Z" transform="translate(359.081 16.751)" fill="#fff"/><path d="M525.778,206.024c0-.729,15.979-1.124,35.3-1.124,19.472,0,35.269.577,35.269,1.519,0,.729,12.637,59.328,27.857,130.109,15.4,70.963,27.857,129.38,27.857,129.775s-12.819.729-28.434.729H595.4q-15.857-92.5-17.619-102.769c-9.66-56.746-18.2-102.435-18.774-101.675a80.062,80.062,0,0,0-3.342,15.341c-2.946,17.407-14.855,80.319-16.13,84.815-.942,2.825.365,3.19,9.265,3.19h10.389c.122,3.706.182,5.772.213,6.167,0,3.19.729,12.546,1.276,20.6.121.972.608,5.772,1.489,14.43h-14.46c-13.4,0-14.49.365-15.432,4.314-2.764,11.969-12.06,54.285-12.06,54.863,0,.365-13,.729-28.768.729-22.115,0-28.434-.547-27.857-2.248C464.687,461.807,525.778,207.33,525.778,206.024Z" transform="translate(572.68 16.751)" fill="#fff"/><path d="M573.917,253.6H521.94V204.9H683.46v48.7H631.483V467.032H573.917Z" transform="translate(691.65 16.751)" fill="#fff"/><g transform="translate(182.53 196.68)"><ellipse cx="45.5" cy="46" rx="45.5" ry="46" transform="translate(91 111.947)" fill="#fff"/><circle cx="45.5" cy="45.5" r="45.5" transform="translate(182 57.947)" fill="#fff"/><g transform="translate(182 166.947)" fill="none" stroke="#fff" stroke-width="4"><circle cx="45.5" cy="45.5" r="45.5" stroke="none"/><circle cx="45.5" cy="45.5" r="43.5" fill="none"/></g><g transform="translate(91 221.947)" fill="none" stroke="#fff" stroke-width="4"><circle cx="45.5" cy="45.5" r="45.5" stroke="none"/><circle cx="45.5" cy="45.5" r="43.5" fill="none"/></g><g transform="translate(91 -0.053)" fill="none" stroke="#fff" stroke-width="4"><circle cx="45.5" cy="45.5" r="45.5" stroke="none"/><circle cx="45.5" cy="45.5" r="43.5" fill="none"/></g><g transform="translate(0 57.947)" fill="none" stroke="#fff" stroke-width="4"><circle cx="45.5" cy="45.5" r="45.5" stroke="none"/><circle cx="45.5" cy="45.5" r="43.5" fill="none"/></g><circle cx="45.5" cy="45.5" r="45.5" transform="translate(0 166.947)" fill="#fff"/></g></g></g></svg>