<svg xmlns="http://www.w3.org/2000/svg" width="551.597" height="572.502" viewBox="0 0 551.597 572.502"><g transform="translate(-62.383 -92.947)"><path d="M96.707,102.67v-.489" transform="translate(353.439 90.68)" fill="none" stroke="#fff" stroke-linecap="round" stroke-linejoin="round" stroke-miterlimit="10" stroke-width="1"/><path d="M79.392,101.461v.963" transform="translate(172.508 83.154)" fill="none" stroke="#fff" stroke-linecap="round" stroke-linejoin="round" stroke-miterlimit="10" stroke-width="1"/><path d="M111.855,113.2l-1.941-4.37" transform="translate(491.444 160.126)" fill="none" stroke="#fff" stroke-linecap="round" stroke-linejoin="round" stroke-miterlimit="10" stroke-width="1"/><path d="M112.9,115.781,110,109" transform="translate(492.342 161.894)" fill="none" stroke="#fff" stroke-linecap="round" stroke-linejoin="round" stroke-miterlimit="10" stroke-width="1"/><path d="M81.538,106.584,69.91,145.839" transform="translate(73.424 136.685)" fill="none" stroke="#fff" stroke-linecap="round" stroke-linejoin="round" stroke-miterlimit="10" stroke-width="1"/><path d="M78.688,105.525l-1.941,1.452-1.452,2.43-1.941,2.9L71.9,115.7l-.978,1.941" transform="translate(84.036 125.62)" fill="none" stroke="#fff" stroke-linecap="round" stroke-linejoin="round" stroke-miterlimit="10" stroke-width="1"/><path d="M79.84,104.89,71.6,112.163" transform="translate(91.121 118.984)" fill="none" stroke="#fff" stroke-linecap="round" stroke-linejoin="round" stroke-miterlimit="10" stroke-width="1"/><path d="M69.91,110.012v2.43" transform="translate(73.424 172.506)" fill="none" stroke="#fff" stroke-linecap="round" stroke-linejoin="round" stroke-miterlimit="10" stroke-width="1"/><path d="M70.356,110.224l-.489,5.333" transform="translate(72.977 174.721)" fill="none" stroke="#fff" stroke-linecap="round" stroke-linejoin="round" stroke-miterlimit="10" stroke-width="1"/><path d="M78.145,104.044v.963l-.978,2.43-1.452,2.43-1.941,2.414-1.452,1.451" transform="translate(98.638 110.144)" fill="none" stroke="#fff" stroke-linecap="round" stroke-linejoin="round" stroke-miterlimit="10" stroke-width="1"/><path d="M91.373,103.6v-.489" transform="translate(297.698 100.408)" fill="none" stroke="#fff" stroke-linecap="round" stroke-linejoin="round" stroke-miterlimit="10" stroke-width="1"/><path d="M87.987,102.308v.978" transform="translate(262.318 92.004)" fill="none" stroke="#fff" stroke-linecap="round" stroke-linejoin="round" stroke-miterlimit="10" stroke-width="1"/><path d="M85.785,102.34v-.963" transform="translate(239.307 82.275)" fill="none" stroke="#fff" stroke-linecap="round" stroke-linejoin="round" stroke-miterlimit="10" stroke-width="1"/><path d="M83.922,101.335v.963" transform="translate(219.839 81.837)" fill="none" stroke="#fff" stroke-linecap="round" stroke-linejoin="round" stroke-miterlimit="10" stroke-width="1"/><path d="M88.241,101.681v-.473" transform="translate(264.968 80.507)" fill="none" stroke="#fff" stroke-linecap="round" stroke-linejoin="round" stroke-miterlimit="10" stroke-width="1"/><path d="M86.378,101.122v.978" transform="translate(245.5 79.611)" fill="none" stroke="#fff" stroke-linecap="round" stroke-linejoin="round" stroke-miterlimit="10" stroke-width="1"/><path d="M84.134,101.366V100.4" transform="translate(222.057 72.097)" fill="none" stroke="#fff" stroke-linecap="round" stroke-linejoin="round" stroke-miterlimit="10" stroke-width="1"/><path d="M82.271,100.4v.489" transform="translate(202.588 72.098)" fill="none" stroke="#fff" stroke-linecap="round" stroke-linejoin="round" stroke-miterlimit="10" stroke-width="1"/><path d="M86.59,101.168v-.978" transform="translate(247.717 69.879)" fill="none" stroke="#fff" stroke-linecap="round" stroke-linejoin="round" stroke-miterlimit="10" stroke-width="1"/><path d="M84.727,100.191v.489" transform="translate(228.249 69.883)" fill="none" stroke="#fff" stroke-linecap="round" stroke-linejoin="round" stroke-miterlimit="10" stroke-width="1"/><path d="M89.644,99.853,69.275,135.716" transform="translate(66.786 66.354)" fill="none" stroke="#fff" stroke-linecap="round" stroke-linejoin="round" stroke-miterlimit="10" stroke-width="1"/><path d="M89.046,100.553v-.489" transform="translate(273.378 68.559)" fill="none" stroke="#fff" stroke-linecap="round" stroke-linejoin="round" stroke-miterlimit="10" stroke-width="1"/><path d="M87.183,99.98v.489" transform="translate(253.909 67.679)" fill="none" stroke="#fff" stroke-linecap="round" stroke-linejoin="round" stroke-miterlimit="10" stroke-width="1"/><path d="M84.98,100.223v-.963" transform="translate(230.899 60.162)" fill="none" stroke="#fff" stroke-linecap="round" stroke-linejoin="round" stroke-miterlimit="10" stroke-width="1"/><path d="M83.076,99.261v.473" transform="translate(210.998 60.162)" fill="none" stroke="#fff" stroke-linecap="round" stroke-linejoin="round" stroke-miterlimit="10" stroke-width="1"/><path d="M87.436,99.565v-.473" transform="translate(256.558 58.391)" fill="none" stroke="#fff" stroke-linecap="round" stroke-linejoin="round" stroke-miterlimit="10" stroke-width="1"/><path d="M85.532,99.048v.489" transform="translate(236.658 57.944)" fill="none" stroke="#fff" stroke-linecap="round" stroke-linejoin="round" stroke-miterlimit="10" stroke-width="1"/><path d="M193.36,163.055l-6.3-10.177-7.274-8.236-6.784-7.273-6.311-5.333-6.784-5.333-4.355-3.392-4.37-2.9-5.333-2.9-6.3-3.881-8.236-4.37-10.177-4.844-12.606-5.333L97.384,95.2" transform="translate(360.513 17.678)" fill="none" stroke="#fff" stroke-linecap="round" stroke-linejoin="round" stroke-miterlimit="10" stroke-width="1"/><path d="M171.185,93.5l-3.865.473L153.75,95.917l-13.1,2.43-12.606,2.414-12.117,3.392-12.117,3.408-11.139,4.355L81.52,116.27l-6.784,2.919" transform="translate(123.852 0.001)" fill="none" stroke="#fff" stroke-linecap="round" stroke-linejoin="round" stroke-miterlimit="10" stroke-width="1"/><path d="M107.544,96.678l-37.8,24.234" transform="translate(71.653 33.177)" fill="none" stroke="#fff" stroke-linecap="round" stroke-linejoin="round" stroke-miterlimit="10" stroke-width="1"/><path d="M134.529,100.595h-2.414l-5.333.489h-5.333l-11.644-.978-5.333-.963-4.844-1.452-4.844-1.467-2.9-1.452" transform="translate(303.012 13.263)" fill="none" stroke="#fff" stroke-linecap="round" stroke-linejoin="round" stroke-miterlimit="10" stroke-width="1"/><path d="M70.274,100.36l-.962.978-.978,2.414-.962,2.919v1.452" transform="translate(46.886 71.649)" fill="none" stroke="#fff" stroke-linecap="round" stroke-linejoin="round" stroke-miterlimit="10" stroke-width="1"/><path d="M79.295,99.514,73,104.358,67.667,109.2" transform="translate(49.982 62.812)" fill="none" stroke="#fff" stroke-linecap="round" stroke-linejoin="round" stroke-miterlimit="10" stroke-width="1"/><path d="M109.175,95.154,95.606,96.606" transform="translate(341.933 17.251)" fill="none" stroke="#fff" stroke-linecap="round" stroke-linejoin="round" stroke-miterlimit="10" stroke-width="1"/><path d="M144.012,95.124l-7.273-.489-13.08-.489-13.585-.473-13.08.473-12.606.978" transform="translate(224.706 1.772)" fill="none" stroke="#fff" stroke-linecap="round" stroke-linejoin="round" stroke-miterlimit="10" stroke-width="1"/><path d="M114.892,104.939l-14.059-6.3L89.68,93.8" transform="translate(280.001 3.097)" fill="none" stroke="#fff" stroke-linecap="round" stroke-linejoin="round" stroke-miterlimit="10" stroke-width="1"/><path d="M103.1,96.074l-.489-.473-3.392-.489-2.43.489" transform="translate(354.317 16.805)" fill="none" stroke="#fff" stroke-linecap="round" stroke-linejoin="round" stroke-miterlimit="10" stroke-width="1"/><path d="M90.622,94.692h-2.9l-3.881-.978" transform="translate(218.961 2.204)" fill="none" stroke="#fff" stroke-linecap="round" stroke-linejoin="round" stroke-miterlimit="10" stroke-width="1"/><path d="M86.056,95.039l-2.431-1.452" transform="translate(216.743 0.878)" fill="none" stroke="#fff" stroke-linecap="round" stroke-linejoin="round" stroke-miterlimit="10" stroke-width="1"/><path d="M90.558,93.8H89.6" transform="translate(279.123 3.097)" fill="none" stroke="#fff" stroke-linecap="round" stroke-linejoin="round" stroke-miterlimit="10" stroke-width="1"/><path d="M88.493,94.466H88.02L85.1,93.5H83.16" transform="translate(211.876 0)" fill="none" stroke="#fff" stroke-linecap="round" stroke-linejoin="round" stroke-miterlimit="10" stroke-width="1"/><path d="M126.369,189.126l-3.392-21.8-4.844-22.783-5.822-22.294-2.9-10.666" transform="translate(486.147 188.88)" fill="none" stroke="#fff" stroke-linecap="round" stroke-linejoin="round" stroke-miterlimit="10" stroke-width="1"/><path d="M110.846,262.836,112.3,119.37" transform="translate(501.178 270.286)" fill="none" stroke="#fff" stroke-linecap="round" stroke-linejoin="round" stroke-miterlimit="10" stroke-width="1"/><path d="M113.69,238.19l-2.43-16.961-3.392-22.783L104,176.152l-4.86-23.272-5.317-22.767-2.919-12.606" transform="translate(292.831 250.817)" fill="none" stroke="#fff" stroke-linecap="round" stroke-linejoin="round" stroke-miterlimit="10" stroke-width="1"/><path d="M92.232,118.83l-.489-.978-.963-.473" transform="translate(291.506 249.489)" fill="none" stroke="#fff" stroke-linecap="round" stroke-linejoin="round" stroke-miterlimit="10" stroke-width="1"/><path d="M109.8,129.331l-20.842-13.1" transform="translate(272.484 237.534)" fill="none" stroke="#fff" stroke-linecap="round" stroke-linejoin="round" stroke-miterlimit="10" stroke-width="1"/><path d="M81.138,111.622,79.2,119.858l-6.3,22.294-3.881,16" transform="translate(64.136 189.329)" fill="none" stroke="#fff" stroke-linecap="round" stroke-linejoin="round" stroke-miterlimit="10" stroke-width="1"/><path d="M71.042,111.495v.473l-.962.978" transform="translate(75.195 188.002)" fill="none" stroke="#fff" stroke-linecap="round" stroke-linejoin="round" stroke-miterlimit="10" stroke-width="1"/><path d="M73.556,111.325l-3.392,1.941" transform="translate(76.074 186.226)" fill="none" stroke="#fff" stroke-linecap="round" stroke-linejoin="round" stroke-miterlimit="10" stroke-width="1"/><path d="M102.083,144.6l.489-6.311" transform="translate(409.61 468.001)" fill="none" stroke="#fff" stroke-linecap="round" stroke-linejoin="round" stroke-miterlimit="10" stroke-width="1"/><path d="M73.442,115.686,68.6,181.6" transform="translate(59.715 231.796)" fill="none" stroke="#fff" stroke-linecap="round" stroke-linejoin="round" stroke-miterlimit="10" stroke-width="1"/><path d="M74.08,115.686,62.925,279.506" transform="translate(0.432 231.796)" fill="none" stroke="#fff" stroke-linecap="round" stroke-linejoin="round" stroke-miterlimit="10" stroke-width="1"/><path d="M75.031,112l-1.941,2.919-4.37,7.258-3.881,8.252-.473.963" transform="translate(15.48 193.3)" fill="none" stroke="#fff" stroke-linecap="round" stroke-linejoin="round" stroke-miterlimit="10" stroke-width="1"/><path d="M67.871,102.52l-.962.489-.978,2.9v1.941" transform="translate(31.837 94.219)" fill="none" stroke="#fff" stroke-linecap="round" stroke-linejoin="round" stroke-miterlimit="10" stroke-width="1"/><path d="M81.136,100.953l-2.919,2.919-6.784,7.747L66.1,118.4" transform="translate(33.609 77.845)" fill="none" stroke="#fff" stroke-linecap="round" stroke-linejoin="round" stroke-miterlimit="10" stroke-width="1"/><path d="M66.362,102.986l-.473,8.236" transform="translate(31.406 99.089)" fill="none" stroke="#fff" stroke-linecap="round" stroke-linejoin="round" stroke-miterlimit="10" stroke-width="1"/><path d="M71.1,104.552,67.221,163.2,65.3,190.335" transform="translate(25.214 115.452)" fill="none" stroke="#fff" stroke-linecap="round" stroke-linejoin="round" stroke-miterlimit="10" stroke-width="1"/><path d="M109.492,108.658h1.452l1.941.489,1.452,1.452" transform="translate(487.029 158.357)" fill="none" stroke="#fff" stroke-linecap="round" stroke-linejoin="round" stroke-miterlimit="10" stroke-width="1"/><path d="M115.383,109.209l.489,1.941v3.392l-.489,1.941-.963,2.414-2.43,3.392-2.414,2.43" transform="translate(487.916 164.115)" fill="none" stroke="#fff" stroke-linecap="round" stroke-linejoin="round" stroke-miterlimit="10" stroke-width="1"/><path d="M104.878,100.7l3.392.489,3.392,1.452,2.414,1.941.978.963" transform="translate(438.816 75.191)" fill="none" stroke="#fff" stroke-linecap="round" stroke-linejoin="round" stroke-miterlimit="10" stroke-width="1"/><path d="M70.926,106.584h.489v.489" transform="translate(84.036 136.685)" fill="none" stroke="#fff" stroke-linecap="round" stroke-linejoin="round" stroke-miterlimit="10" stroke-width="1"/><path d="M69.91,110.012v.489H70.4" transform="translate(73.424 172.506)" fill="none" stroke="#fff" stroke-linecap="round" stroke-linejoin="round" stroke-miterlimit="10" stroke-width="1"/><path d="M71.6,105.971l.962-.489h.978" transform="translate(91.121 125.173)" fill="none" stroke="#fff" stroke-linecap="round" stroke-linejoin="round" stroke-miterlimit="10" stroke-width="1"/><path d="M72.323,105.322v-.473h2.43" transform="translate(98.638 118.553)" fill="none" stroke="#fff" stroke-linecap="round" stroke-linejoin="round" stroke-miterlimit="10" stroke-width="1"/><path d="M69.91,111.187v-.963" transform="translate(73.424 174.72)" fill="none" stroke="#fff" stroke-linecap="round" stroke-linejoin="round" stroke-miterlimit="10" stroke-width="1"/><path d="M79.023,113.778l-.489-2.43-.962-3.392-2.43-2.414-2.9-2.43" transform="translate(97.76 100.41)" fill="none" stroke="#fff" stroke-linecap="round" stroke-linejoin="round" stroke-miterlimit="10" stroke-width="1"/><path d="M73.132,103.112l-.978,21.8" transform="translate(96.866 100.405)" fill="none" stroke="#fff" stroke-linecap="round" stroke-linejoin="round" stroke-miterlimit="10" stroke-width="1"/><path d="M70.419,109.274l.473-3.881.978-3.865v-.489" transform="translate(78.737 78.74)" fill="none" stroke="#fff" stroke-linecap="round" stroke-linejoin="round" stroke-miterlimit="10" stroke-width="1"/><path d="M70.756,113.622l.978-2.9,2.9-5.822,2.919-5.806" transform="translate(82.265 58.387)" fill="none" stroke="#fff" stroke-linecap="round" stroke-linejoin="round" stroke-miterlimit="10" stroke-width="1"/><path d="M67.5,103.576l.489-.978,1.452-1.941" transform="translate(48.21 74.753)" fill="none" stroke="#fff" stroke-linecap="round" stroke-linejoin="round" stroke-miterlimit="10" stroke-width="1"/><path d="M70.715,113.673l6.784-6.784,7.273-6.311,4.355-3.392" transform="translate(81.833 38.477)" fill="none" stroke="#fff" stroke-linecap="round" stroke-linejoin="round" stroke-miterlimit="10" stroke-width="1"/><path d="M83.16,93.976l.978-.473,2.414.962" transform="translate(211.877 0)" fill="none" stroke="#fff" stroke-linecap="round" stroke-linejoin="round" stroke-miterlimit="10" stroke-width="1"/><path d="M78.906,99.472l-2.43,1.941-8.725,7.274" transform="translate(50.86 62.365)" fill="none" stroke="#fff" stroke-linecap="round" stroke-linejoin="round" stroke-miterlimit="10" stroke-width="1"/><path d="M95.606,95.281H96.1l.489.489" transform="translate(341.934 18.576)" fill="none" stroke="#fff" stroke-linecap="round" stroke-linejoin="round" stroke-miterlimit="10" stroke-width="1"/><path d="M93.206,94.772H91.755" transform="translate(301.687 13.263)" fill="none" stroke="#fff" stroke-linecap="round" stroke-linejoin="round" stroke-miterlimit="10" stroke-width="1"/><path d="M68.629,100.276l-.962.963" transform="translate(49.981 70.771)" fill="none" stroke="#fff" stroke-linecap="round" stroke-linejoin="round" stroke-miterlimit="10" stroke-width="1"/><path d="M97.77,95.154h-.978" transform="translate(354.318 17.251)" fill="none" stroke="#fff" stroke-linecap="round" stroke-linejoin="round" stroke-miterlimit="10" stroke-width="1"/><path d="M84.43,93.8h0" transform="translate(225.153 3.097)" fill="none" stroke="#fff" stroke-linecap="round" stroke-linejoin="round" stroke-miterlimit="10" stroke-width="1"/><path d="M89.6,93.8h0" transform="translate(279.123 3.097)" fill="none" stroke="#fff" stroke-linecap="round" stroke-linejoin="round" stroke-miterlimit="10" stroke-width="1"/><path d="M90.558,93.8H89.6" transform="translate(279.123 3.097)" fill="none" stroke="#fff" stroke-linecap="round" stroke-linejoin="round" stroke-miterlimit="10" stroke-width="1"/><path d="M85.163,94.146l-.489-.473-.962.473" transform="translate(217.637 1.771)" fill="none" stroke="#fff" stroke-linecap="round" stroke-linejoin="round" stroke-miterlimit="10" stroke-width="1"/><path d="M85.4,93.587H83.456" transform="translate(214.972 0.878)" fill="none" stroke="#fff" stroke-linecap="round" stroke-linejoin="round" stroke-miterlimit="10" stroke-width="1"/><path d="M107.5,112.976l.489,1.941,5.822,25.686,4.844,27.137,6.784,45.566" transform="translate(466.235 203.478)" fill="none" stroke="#fff" stroke-linecap="round" stroke-linejoin="round" stroke-miterlimit="10" stroke-width="1"/><path d="M70.249,111.622l4.355,4.354" transform="translate(76.966 189.329)" fill="none" stroke="#fff" stroke-linecap="round" stroke-linejoin="round" stroke-miterlimit="10" stroke-width="1"/><path d="M73.152,111.367l-2.9,1.467" transform="translate(76.966 186.665)" fill="none" stroke="#fff" stroke-linecap="round" stroke-linejoin="round" stroke-miterlimit="10" stroke-width="1"/><path d="M69.105,105.017l21.821,16" transform="translate(65.015 120.311)" fill="none" stroke="#fff" stroke-linecap="round" stroke-linejoin="round" stroke-miterlimit="10" stroke-width="1"/><path d="M69.594,104.89l-.489,1.452" transform="translate(65.015 118.984)" fill="none" stroke="#fff" stroke-linecap="round" stroke-linejoin="round" stroke-miterlimit="10" stroke-width="1"/><path d="M109.286,129.331l-20.369-13.1" transform="translate(272.038 237.534)" fill="none" stroke="#fff" stroke-linecap="round" stroke-linejoin="round" stroke-miterlimit="10" stroke-width="1"/><path d="M90.611,119.445h1.452l.978-.489.473-.489.489-.473v-.489" transform="translate(289.735 250.809)" fill="none" stroke="#fff" stroke-linecap="round" stroke-linejoin="round" stroke-miterlimit="10" stroke-width="1"/><path d="M90.7,117.379h.963" transform="translate(290.628 249.486)" fill="none" stroke="#fff" stroke-linecap="round" stroke-linejoin="round" stroke-miterlimit="10" stroke-width="1"/><path d="M100.771,129.1l.489-13.08" transform="translate(395.9 235.334)" fill="none" stroke="#fff" stroke-linecap="round" stroke-linejoin="round" stroke-miterlimit="10" stroke-width="1"/><path d="M70.569,112.584l-.489-.473v-.489" transform="translate(75.195 189.329)" fill="none" stroke="#fff" stroke-linecap="round" stroke-linejoin="round" stroke-miterlimit="10" stroke-width="1"/><path d="M71.142,111.5h-.978" transform="translate(76.073 188.002)" fill="none" stroke="#fff" stroke-linecap="round" stroke-linejoin="round" stroke-miterlimit="10" stroke-width="1"/><path d="M108.865,125.5l-.473-4.355" transform="translate(475.532 288.856)" fill="none" stroke="#fff" stroke-linecap="round" stroke-linejoin="round" stroke-miterlimit="10" stroke-width="1"/><path d="M101.853,115.812l-.489,14.547" transform="translate(402.1 233.112)" fill="none" stroke="#fff" stroke-linecap="round" stroke-linejoin="round" stroke-miterlimit="10" stroke-width="1"/><path d="M71.342,137.413l-3.881-8.236-2.43-8.725-.962-2.9" transform="translate(12.384 251.263)" fill="none" stroke="#fff" stroke-linecap="round" stroke-linejoin="round" stroke-miterlimit="10" stroke-width="1"/><path d="M65.042,118.9l41.2,25.686" transform="translate(22.55 265.411)" fill="none" stroke="#fff" stroke-linecap="round" stroke-linejoin="round" stroke-miterlimit="10" stroke-width="1"/><path d="M90.826,121.617l-21.8-16.472" transform="translate(64.136 121.652)" fill="none" stroke="#fff" stroke-linecap="round" stroke-linejoin="round" stroke-miterlimit="10" stroke-width="1"/><path d="M68.768,106.281l.962-1.941" transform="translate(61.486 113.243)" fill="none" stroke="#fff" stroke-linecap="round" stroke-linejoin="round" stroke-miterlimit="10" stroke-width="1"/><path d="M65.93,102.986v.489l.489.473" transform="translate(31.838 99.089)" fill="none" stroke="#fff" stroke-linecap="round" stroke-linejoin="round" stroke-miterlimit="10" stroke-width="1"/><path d="M66.059,104.68h.473l1.941-1.941,3.881-.473,4.355.963.489.489" transform="translate(33.177 91.567)" fill="none" stroke="#fff" stroke-linecap="round" stroke-linejoin="round" stroke-miterlimit="10" stroke-width="1"/><path d="M79.392,101.546v2.919l.978,4.844,1.941,5.333,2.414,4.844,3.881,4.844,4.844,4.37,5.333,4.355,6.311,4.37,6.784,3.866,7.747,3.408,8.236,2.9,8.725,2.414,9.214,2.43,9.688,1.452,9.7,1.452,9.687.489,9.7.489,10.177-.489,9.687-.489,9.214-1.452,9.2-1.941,8.725-1.941,7.763-2.9,7.747-2.9,6.8-3.392,5.806-3.881,5.333-4.355,4.37-4.37,3.392-4.355L275.7,119l1.451-4.844.489-4.844" transform="translate(172.508 84.042)" fill="none" stroke="#fff" stroke-linecap="round" stroke-linejoin="round" stroke-miterlimit="10" stroke-width="1"/><path d="M91.947,94.693H86.614l-2.9-.979" transform="translate(217.636 2.203)" fill="none" stroke="#fff" stroke-linecap="round" stroke-linejoin="round" stroke-miterlimit="10" stroke-width="1"/><path d="M143.565,94.692,135.8,94.2h-7.258l-7.273-.489H106.235l-7.258.489H91.7l-7.273.489" transform="translate(225.153 2.204)" fill="none" stroke="#fff" stroke-linecap="round" stroke-linejoin="round" stroke-miterlimit="10" stroke-width="1"/><path d="M114.319,104.939l-2.919-1.452-3.392-1.452-2.9-1.452-3.392-1.452-2.9-.978L95.417,96.7,92.5,95.251,89.6,93.8" transform="translate(279.123 3.097)" fill="none" stroke="#fff" stroke-linecap="round" stroke-linejoin="round" stroke-miterlimit="10" stroke-width="1"/><path d="M136.831,101.084l-6.311.473h-6.295l-6.784-.473-6.784-.978-6.311-.962L98.539,97.2l-6.784-2.43" transform="translate(301.687 13.263)" fill="none" stroke="#fff" stroke-linecap="round" stroke-linejoin="round" stroke-miterlimit="10" stroke-width="1"/><path d="M109.261,95.154l-1.941.473h-3.392l-1.452.489h-1.941l-1.452.489H97.617l-1.925.489" transform="translate(342.827 17.251)" fill="none" stroke="#fff" stroke-linecap="round" stroke-linejoin="round" stroke-miterlimit="10" stroke-width="1"/><path d="M188.482,158.643l-6.311-9.687-8.236-9.7-9.687-8.725L152.62,121.8l-13.1-7.747-14.058-7.763-14.058-5.806L96.877,95.154" transform="translate(355.212 17.247)" fill="none" stroke="#fff" stroke-linecap="round" stroke-linejoin="round" stroke-miterlimit="10" stroke-width="1"/><path d="M157.7,191.816l-11.139-19.864L135.9,153.05l-11.155-17.939-10.177-17.45L104.878,100.7" transform="translate(438.819 75.2)" fill="none" stroke="#fff" stroke-linecap="round" stroke-linejoin="round" stroke-miterlimit="10" stroke-width="1"/><path d="M109.365,126.6l1.452-1.941,1.452-2.414.489-1.941.489-2.43-.489-4.844-1.941-4.37" transform="translate(485.702 158.349)" fill="none" stroke="#fff" stroke-linecap="round" stroke-linejoin="round" stroke-miterlimit="10" stroke-width="1"/><path d="M96.454,170.811l22.767-3.881,22.294-5.333,20.842-6.784,19.391-7.273,17.939-8.236,16.961-8.725L231.2,120.4l13.079-10.177" transform="translate(350.789 174.725)" fill="none" stroke="#fff" stroke-linecap="round" stroke-linejoin="round" stroke-miterlimit="10" stroke-width="1"/><path d="M93.743,115.136l6.8,2.414,7.747,1.941,4.37.489h3.865l8.252-.489" transform="translate(322.465 226.048)" fill="none" stroke="#fff" stroke-linecap="round" stroke-linejoin="round" stroke-miterlimit="10" stroke-width="1"/><path d="M80.833,110.606l30.041,8.236,29.567,9.687L169.534,139.2,199.1,150.823l29.552,11.644" transform="translate(187.556 178.713)" fill="none" stroke="#fff" stroke-linecap="round" stroke-linejoin="round" stroke-miterlimit="10" stroke-width="1"/><path d="M71.773,105.483l7.273,8.725,8.725,7.763L98.911,130.7l13.1,8.236,14.042,7.274,15.509,6.784,16.488,5.822,17.45,5.333" transform="translate(92.892 125.181)" fill="none" stroke="#fff" stroke-linecap="round" stroke-linejoin="round" stroke-miterlimit="10" stroke-width="1"/><path d="M80.5,104.849l-.978.963-1.452.963-.962.978-.978.963-.962.978-.978.963-1.452.978-.962.473" transform="translate(92.892 118.556)" fill="none" stroke="#fff" stroke-linecap="round" stroke-linejoin="round" stroke-miterlimit="10" stroke-width="1"/><path d="M72.493,102.732l3.392,2.414,2.43,3.392.962,3.392.489,3.392-.978,3.392L76.847,122.6l-3.865,4.37" transform="translate(100.409 96.435)" fill="none" stroke="#fff" stroke-linecap="round" stroke-linejoin="round" stroke-miterlimit="10" stroke-width="1"/><path d="M70.672,101.588l2.9,1.452,2.43,1.941,2.43,1.451,2.414,1.467,2.9,1.925,2.43,1.467,2.43,1.451,2.9,1.941" transform="translate(81.387 84.48)" fill="none" stroke="#fff" stroke-linecap="round" stroke-linejoin="round" stroke-miterlimit="10" stroke-width="1"/><path d="M82.789,99.048l-2.43,3.392-1.925,3.881-3.881,6.784-.978,3.881-1.451,3.866-.962,3.392-.489,3.881" transform="translate(81.387 57.944)" fill="none" stroke="#fff" stroke-linecap="round" stroke-linejoin="round" stroke-miterlimit="10" stroke-width="1"/><path d="M71.561,98.71l.978.489.962.963.489.978-.489,1.452" transform="translate(90.675 54.402)" fill="none" stroke="#fff" stroke-linecap="round" stroke-linejoin="round" stroke-miterlimit="10" stroke-width="1"/><path d="M71.35,98.583v.489h.962v.473h.962l.489.489" transform="translate(88.472 53.077)" fill="none" stroke="#fff" stroke-linecap="round" stroke-linejoin="round" stroke-miterlimit="10" stroke-width="1"/><path d="M209.957,93.587l-14.042,1.941L182.33,97.469l-26.159,5.806-12.117,3.881-11.644,4.37-11.139,4.354-10.177,4.844-9.7,5.333-9.2,5.822-7.763,6.3-7.274,6.311-5.806,6.3" transform="translate(88.471 0.878)" fill="none" stroke="#fff" stroke-linecap="round" stroke-linejoin="round" stroke-miterlimit="10" stroke-width="1"/><path d="M86.375,95.039l-.489-.473H85.4l-.473-.489h-.489l-.489-.489h-.489" transform="translate(214.973 0.879)" fill="none" stroke="#fff" stroke-linecap="round" stroke-linejoin="round" stroke-miterlimit="10" stroke-width="1"/><path d="M230.128,156.826,214.145,151l-16.977-6.3-15.983-5.333-16.977-4.844-16.472-4.844L135.62,126.3,122.54,122.9,110.9,119.5l-7.747-1.925-10.177-2.43L85.21,113.2l-4.844-1.451" transform="translate(182.688 190.656)" fill="none" stroke="#fff" stroke-linecap="round" stroke-linejoin="round" stroke-miterlimit="10" stroke-width="1"/><path d="M92.813,126.351l3.392-5.333,3.865-5.333" transform="translate(312.745 231.79)" fill="none" stroke="#fff" stroke-linecap="round" stroke-linejoin="round" stroke-miterlimit="10" stroke-width="1"/><path d="M99,118.832l-6.784-2.427" transform="translate(306.554 239.309)" fill="none" stroke="#fff" stroke-linecap="round" stroke-linejoin="round" stroke-miterlimit="10" stroke-width="1"/><path d="M90.315,116.151H99.04l8.725,1.452,4.37,1.452" transform="translate(286.639 236.655)" fill="none" stroke="#fff" stroke-linecap="round" stroke-linejoin="round" stroke-miterlimit="10" stroke-width="1"/><path d="M146.488,116.151l-61.549,4.355" transform="translate(230.466 236.655)" fill="none" stroke="#fff" stroke-linecap="round" stroke-linejoin="round" stroke-miterlimit="10" stroke-width="1"/><path d="M79.689,115.177l60.113,15.51" transform="translate(175.604 226.477)" fill="none" stroke="#fff" stroke-linecap="round" stroke-linejoin="round" stroke-miterlimit="10" stroke-width="1"/><path d="M87.451,111.749,79.689,151" transform="translate(175.604 190.656)" fill="none" stroke="#fff" stroke-linecap="round" stroke-linejoin="round" stroke-miterlimit="10" stroke-width="1"/><path d="M96.839,115.136l-1.925,2.9-.978,1.941-.489,1.452" transform="translate(319.37 226.048)" fill="none" stroke="#fff" stroke-linecap="round" stroke-linejoin="round" stroke-miterlimit="10" stroke-width="1"/><path d="M85.7,110.606l-1.452,2.414L82.8,116.412l-1.467,3.881-.962,3.392" transform="translate(182.689 178.713)" fill="none" stroke="#fff" stroke-linecap="round" stroke-linejoin="round" stroke-miterlimit="10" stroke-width="1"/><path d="M128.836,118.589l-4.37.489-4.355.489-5.333.473H110.9l-4.844-.473-3.881-.978-8.725-2.9" transform="translate(319.37 231.79)" fill="none" stroke="#fff" stroke-linecap="round" stroke-linejoin="round" stroke-miterlimit="10" stroke-width="1"/><path d="M104.055,115.939l-4.37,5.822-3.865,5.333" transform="translate(344.152 234.439)" fill="none" stroke="#fff" stroke-linecap="round" stroke-linejoin="round" stroke-miterlimit="10" stroke-width="1"/><path d="M127.224,120.009l-7.763.963h-7.747l-8.252-.963-8.236-2.43-2.414-.963" transform="translate(312.745 241.521)" fill="none" stroke="#fff" stroke-linecap="round" stroke-linejoin="round" stroke-miterlimit="10" stroke-width="1"/><path d="M96.454,115.516l.473.963v1.467l.489,1.452v.963" transform="translate(350.789 230.019)" fill="none" stroke="#fff" stroke-linecap="round" stroke-linejoin="round" stroke-miterlimit="10" stroke-width="1"/><path d="M245.826,110.563l-13.1,10.666-15.02,10.177-16.488,8.725-18.413,8.725-19.864,7.258L142.1,162.424l-22.294,5.333-23.272,4.355" transform="translate(351.668 178.264)" fill="none" stroke="#fff" stroke-linecap="round" stroke-linejoin="round" stroke-miterlimit="10" stroke-width="1"/><path d="M112.969,116.859l-1.452-2.9-1.941-3.392" transform="translate(487.915 178.265)" fill="none" stroke="#fff" stroke-linecap="round" stroke-linejoin="round" stroke-miterlimit="10" stroke-width="1"/><path d="M95.819,177.521l15.509-2.43,15.51-2.9,15.02-3.392,14.547-3.881,13.569-4.355,13.569-4.859,12.606-5.333,12.117-5.806,11.139-5.822,10.666-6.3,9.7-6.784,9.2-7.273,7.763-7.273" transform="translate(344.151 184.009)" fill="none" stroke="#fff" stroke-linecap="round" stroke-linejoin="round" stroke-miterlimit="10" stroke-width="1"/><path d="M109.365,110.224l.979.489.963.963.489,1.452v.978" transform="translate(485.702 174.721)" fill="none" stroke="#fff" stroke-linecap="round" stroke-linejoin="round" stroke-miterlimit="10" stroke-width="1"/><path d="M116.316,244.108l-.962-5.333-6.784-45.566-9.7-46.039-7.747-31.019" transform="translate(295.048 236.656)" fill="none" stroke="#fff" stroke-linecap="round" stroke-linejoin="round" stroke-miterlimit="10" stroke-width="1"/><path d="M107.079,113.23l3.392,17.45,4.844,24.234,3.881,24.234,3.392,24.234" transform="translate(461.815 206.132)" fill="none" stroke="#fff" stroke-linecap="round" stroke-linejoin="round" stroke-miterlimit="10" stroke-width="1"/><path d="M113.732,121.1l-5.806,7.763" transform="translate(470.664 288.41)" fill="none" stroke="#fff" stroke-linecap="round" stroke-linejoin="round" stroke-miterlimit="10" stroke-width="1"/><path d="M111.468,139.479l-3.881-19.391" transform="translate(467.123 277.798)" fill="none" stroke="#fff" stroke-linecap="round" stroke-linejoin="round" stroke-miterlimit="10" stroke-width="1"/><path d="M243.836,167.866l-4.37-13.569-5.333-12.117L227.348,132l-8.236-7.763-9.687-5.333L198.759,116l-11.628-.489-12.606,2.43-12.117,4.844L149.8,130.063l-11.628,9.2-11.155,11.155-10.177,12.606-8.725,14.042-6.784,15.525-4.354,15.983-1.941,10.666-.489,10.177" transform="translate(330.874 230.016)" fill="none" stroke="#fff" stroke-linecap="round" stroke-linejoin="round" stroke-miterlimit="10" stroke-width="1"/><path d="M94.548,125.464v20.842" transform="translate(330.875 333.969)" fill="none" stroke="#fff" stroke-linecap="round" stroke-linejoin="round" stroke-miterlimit="10" stroke-width="1"/><path d="M93.32,127.773l14.058-.489" transform="translate(318.044 352.99)" fill="none" stroke="#fff" stroke-linecap="round" stroke-linejoin="round" stroke-miterlimit="10" stroke-width="1"/><path d="M89.469,116.194l.473,1.925.489,2.43" transform="translate(277.797 237.104)" fill="none" stroke="#fff" stroke-linecap="round" stroke-linejoin="round" stroke-miterlimit="10" stroke-width="1"/><path d="M99.512,132.641l-6.784-5.822" transform="translate(311.852 348.123)" fill="none" stroke="#fff" stroke-linecap="round" stroke-linejoin="round" stroke-miterlimit="10" stroke-width="1"/><path d="M89.553,117.063v-.489" transform="translate(278.676 241.078)" fill="none" stroke="#fff" stroke-linecap="round" stroke-linejoin="round" stroke-miterlimit="10" stroke-width="1"/><path d="M130.587,128.507l-50.9-13.075" transform="translate(175.604 229.141)" fill="none" stroke="#fff" stroke-linecap="round" stroke-linejoin="round" stroke-miterlimit="10" stroke-width="1"/><path d="M79.689,115.177v2.92" transform="translate(175.604 226.477)" fill="none" stroke="#fff" stroke-linecap="round" stroke-linejoin="round" stroke-miterlimit="10" stroke-width="1"/><path d="M93.348,116.532l-3.392.489H84.134" transform="translate(222.057 240.636)" fill="none" stroke="#fff" stroke-linecap="round" stroke-linejoin="round" stroke-miterlimit="10" stroke-width="1"/><path d="M178.572,165.272l-17.45-4.844-16.961-5.822-15.51-6.784L114.1,140.549l-13.08-8.236-12.117-8.236-9.7-8.725-8.236-8.725" transform="translate(84.483 137.133)" fill="none" stroke="#fff" stroke-linecap="round" stroke-linejoin="round" stroke-miterlimit="10" stroke-width="1"/><path d="M69.953,110.055l7.747,7.763,8.252,6.784,9.2,6.784,10.177,6.784,11.155,5.822,11.628,5.806,12.606,5.333,13.08,5.333,13.585,4.37,14.042,3.865" transform="translate(73.871 172.955)" fill="none" stroke="#fff" stroke-linecap="round" stroke-linejoin="round" stroke-miterlimit="10" stroke-width="1"/><path d="M81.581,106.626,79.64,113.9l-8.725,29.078-.962,2.9" transform="translate(73.871 137.124)" fill="none" stroke="#fff" stroke-linecap="round" stroke-linejoin="round" stroke-miterlimit="10" stroke-width="1"/><path d="M79.647,120.765l.473-5.333" transform="translate(175.171 229.144)" fill="none" stroke="#fff" stroke-linecap="round" stroke-linejoin="round" stroke-miterlimit="10" stroke-width="1"/><path d="M82.567,117.537l17.939-.963" transform="translate(205.684 241.074)" fill="none" stroke="#fff" stroke-linecap="round" stroke-linejoin="round" stroke-miterlimit="10" stroke-width="1"/><path d="M113.08,124.607,79.647,115.9" transform="translate(175.172 234.004)" fill="none" stroke="#fff" stroke-linecap="round" stroke-linejoin="round" stroke-miterlimit="10" stroke-width="1"/><path d="M116.443,122.752l-9.7-2.919" transform="translate(458.267 275.13)" fill="none" stroke="#fff" stroke-linecap="round" stroke-linejoin="round" stroke-miterlimit="10" stroke-width="1"/><path d="M136.806,164.069,132.941,150.5l-5.822-12.117-6.3-9.687-8.252-7.763-8.709-5.333" transform="translate(428.206 230.893)" fill="none" stroke="#fff" stroke-linecap="round" stroke-linejoin="round" stroke-miterlimit="10" stroke-width="1"/><path d="M80.183,105.483l-.489.978-3.881,3.392L73.4,113.734l-2.43,4.844" transform="translate(84.483 125.181)" fill="none" stroke="#fff" stroke-linecap="round" stroke-linejoin="round" stroke-miterlimit="10" stroke-width="1"/><path d="M181.868,168.97l-14.531-3.881-13.569-4.844-13.1-4.86-12.606-5.317-11.628-5.822L105.3,138.424,95.123,131.64l-9.214-6.784-8.236-7.274-7.763-7.273" transform="translate(73.424 175.604)" fill="none" stroke="#fff" stroke-linecap="round" stroke-linejoin="round" stroke-miterlimit="10" stroke-width="1"/><path d="M70.4,110.055v1.452l-.489,1.452" transform="translate(73.425 172.955)" fill="none" stroke="#fff" stroke-linecap="round" stroke-linejoin="round" stroke-miterlimit="10" stroke-width="1"/><path d="M69.91,110.308v5.333" transform="translate(73.424 175.599)" fill="none" stroke="#fff" stroke-linecap="round" stroke-linejoin="round" stroke-miterlimit="10" stroke-width="1"/><path d="M181.395,169.436l-14.058-3.881-13.569-4.844-13.585-4.86-12.117-5.333-11.628-5.806L105.3,138.4l-10.177-6.3-9.214-6.784-8.725-7.274-7.273-7.273" transform="translate(73.424 180.473)" fill="none" stroke="#fff" stroke-linecap="round" stroke-linejoin="round" stroke-miterlimit="10" stroke-width="1"/><path d="M113.8,107.574l7.763-2.9,8.236-2.43,9.214-1.941,9.214-1.452,9.2-.963,9.7-.489h10.177l9.687.489,9.7.963,9.688,1.452,9.214,1.941,9.2,2.43,8.725,2.9,7.763,2.9,7.274,3.881,6.784,3.881,5.806,4.355,4.86,4.37,4.355,4.844,3.392,4.844,2.43,4.844.962,4.86.489,5.333-.489,4.844-1.451,4.844-2.9,4.844-3.392,4.844-4.37,4.37-5.333,4.355-5.806,3.392-6.8,3.881-7.747,2.9-7.763,2.919-8.725,1.941-9.2,1.925-9.214.978-9.687.963-9.7.489-10.177-.489-9.687-.473-9.7-1.467L145.8,195.3l-9.214-2.414-8.725-2.43-8.236-3.392-7.747-3.392-6.784-3.392-6.311-4.355-5.333-4.37L88.607,167.2l-3.881-4.86-2.414-5.333-1.941-4.844-.978-4.844v-5.333l1.467-4.844,1.925-4.844,2.919-4.844,3.865-4.37,4.859-4.355,5.806-3.881,6.311-3.881,7.258-3.392" transform="translate(172.507 40.694)" fill="none" stroke="#fff" stroke-linecap="round" stroke-linejoin="round" stroke-miterlimit="10" stroke-width="1"/><path d="M111.578,107.381l-6.784,3.392-6.311,3.392-5.333,3.881-4.355,4.37-3.881,4.354-2.43,4.37-1.925,4.844-.489,4.844v4.844l1.451,4.844,2.43,4.859,2.9,4.844,4.355,4.355,4.86,4.37,6.3,4.355,6.3,3.392,7.274,3.392,8.236,3.392,8.252,2.43,8.725,1.94,9.2,1.941,9.7.963,9.687.489,9.214.489,9.688-.489,9.214-.978,9.214-1.452,8.236-1.941,8.236-2.414,7.763-2.43,6.784-3.392,6.3-3.392,5.333-3.881,4.355-4.355,3.881-4.37,2.43-4.844,1.941-4.354.473-5.333V143.26L261.34,138.4l-2.414-4.844-2.919-4.355-4.355-4.844-4.844-4.37-5.822-3.881-6.784-3.865-7.274-3.408-8.236-2.9-8.236-2.414-8.725-2.43-9.214-1.452-9.687-.978-9.214-.963h-9.7l-9.687.489-9.214.962-9.2.978-8.252,1.925-8.236,2.43-7.747,2.9" transform="translate(179.592 43.79)" fill="none" stroke="#fff" stroke-linecap="round" stroke-linejoin="round" stroke-miterlimit="10" stroke-width="1"/><path d="M91.966,103.3l.978-.489h.962l.489-.489.962-.489h.978l.473-.473h.978l.962-.489" transform="translate(303.89 76.966)" fill="none" stroke="#fff" stroke-linecap="round" stroke-linejoin="round" stroke-miterlimit="10" stroke-width="1"/><path d="M92.558,100.869l2.919,1.941,5.806,3.881,2.919,1.452,2.9,1.941,2.9,1.925,2.919,1.94,2.9,1.941" transform="translate(310.082 76.967)" fill="none" stroke="#fff" stroke-linecap="round" stroke-linejoin="round" stroke-miterlimit="10" stroke-width="1"/><path d="M94.591,104.829h.963l.978-.473.962-.489.978-.489.962-.489h1.452l.978-.473.962-.489" transform="translate(331.321 88.029)" fill="none" stroke="#fff" stroke-linecap="round" stroke-linejoin="round" stroke-miterlimit="10" stroke-width="1"/><path d="M93.32,102.343H94.3l.962-.489.489-.489h.962l.489-.473h.962l.978-.489" transform="translate(318.044 72.104)" fill="none" stroke="#fff" stroke-linecap="round" stroke-linejoin="round" stroke-miterlimit="10" stroke-width="1"/><path d="M91.5,100.783l.489.489.962.489.489.489h.978l.473.473.978.489.473.489.489.489" transform="translate(299.022 76.069)" fill="none" stroke="#fff" stroke-linecap="round" stroke-linejoin="round" stroke-miterlimit="10" stroke-width="1"/><path d="M89.638,103.621l1.452,1.452.473.489.489.473,1.452,1.452" transform="translate(279.569 105.724)" fill="none" stroke="#fff" stroke-linecap="round" stroke-linejoin="round" stroke-miterlimit="10" stroke-width="1"/><path d="M89.976,112.353l6.311-1.452,6.3-2.9,2.43-2.43.963-1.925v-.489" transform="translate(283.096 100.851)" fill="none" stroke="#fff" stroke-linecap="round" stroke-linejoin="round" stroke-miterlimit="10" stroke-width="1"/><path d="M88.833,105.446l.489-.963.962-.489,2.9-1.451,3.881-.489" transform="translate(271.159 89.347)" fill="none" stroke="#fff" stroke-linecap="round" stroke-linejoin="round" stroke-miterlimit="10" stroke-width="1"/><path d="M87.987,102.393l.473,1.941,1.451,1.452,2.919,1.941,3.392.963,6.784.978,5.806-.489h3.408l1.925.489h1.467l1.452,1.452v.963" transform="translate(262.318 92.892)" fill="none" stroke="#fff" stroke-linecap="round" stroke-linejoin="round" stroke-miterlimit="10" stroke-width="1"/><path d="M84.091,107.518l.978-.473.962-.489.489-.489.962-.473h.978l.473-.489.978-.489.962-.489" transform="translate(221.61 111.021)" fill="none" stroke="#fff" stroke-linecap="round" stroke-linejoin="round" stroke-miterlimit="10" stroke-width="1"/><path d="M84.684,104.128l2.919,1.941,5.806,3.881,2.919,1.941,5.806,3.881,2.919,1.941,2.9,1.925" transform="translate(227.803 111.022)" fill="none" stroke="#fff" stroke-linecap="round" stroke-linejoin="round" stroke-miterlimit="10" stroke-width="1"/><path d="M86.717,109.009l.962-.473.978-.489.962-.489.978-.473.962-.489,1.452-.489.978-.489.962-.473" transform="translate(249.042 121.655)" fill="none" stroke="#fff" stroke-linecap="round" stroke-linejoin="round" stroke-miterlimit="10" stroke-width="1"/><path d="M85.446,106.006l.978-.489.962-.489h.489l.962-.489.978-.473.489-.489h.963" transform="translate(235.765 105.274)" fill="none" stroke="#fff" stroke-linecap="round" stroke-linejoin="round" stroke-miterlimit="10" stroke-width="1"/><path d="M83.626,104.087l.489.473.978.489.473.489.978.489.962.963.978.489.473.473" transform="translate(216.743 110.593)" fill="none" stroke="#fff" stroke-linecap="round" stroke-linejoin="round" stroke-miterlimit="10" stroke-width="1"/><path d="M84.727,100.234l.489,1.452,1.452,1.452L89.1,104.6l3.392.963h6.784l3.392-.963,1.941-1.467,1.452-1.452v-.963" transform="translate(228.249 70.332)" fill="none" stroke="#fff" stroke-linecap="round" stroke-linejoin="round" stroke-miterlimit="10" stroke-width="1"/><path d="M83.922,101.419v1.452l1.467,1.467,2.9,1.452,2.9.963h7.273l2.9-.963,2.43-1.452.962-1.941v-.489" transform="translate(219.839 82.715)" fill="none" stroke="#fff" stroke-linecap="round" stroke-linejoin="round" stroke-miterlimit="10" stroke-width="1"/><path d="M87.182,100.023l.489,1.925,1.452,1.467,2.414,1.452,3.392.473,3.392.489h3.392l3.392-.963,1.941-1.452,1.467-1.467v-.963" transform="translate(253.909 68.127)" fill="none" stroke="#fff" stroke-linecap="round" stroke-linejoin="round" stroke-miterlimit="10" stroke-width="1"/><path d="M82.271,100.446l.489,1.941,1.451,1.452,2.43.963,3.392.978,3.392.473,3.392-.473,3.392-.978,1.941-1.452L103.6,101.9v-.978" transform="translate(202.588 72.547)" fill="none" stroke="#fff" stroke-linecap="round" stroke-linejoin="round" stroke-miterlimit="10" stroke-width="1"/><path d="M111.578,98.667l-6.784,2.919-6.311,3.881-5.333,3.865L88.8,113.214l-3.881,4.37-2.43,4.844-1.925,4.844-.489,4.354" transform="translate(179.592 53.956)" fill="none" stroke="#fff" stroke-linecap="round" stroke-linejoin="round" stroke-miterlimit="10" stroke-width="1"/><path d="M234.035,147.741v-4.355l-1.452-4.844-2.414-4.859-2.919-4.844-4.355-4.355-4.844-4.37-6.311-3.881-6.3-3.865-7.274-3.392-8.236-2.919-8.236-2.9-8.725-1.941-9.214-1.451-9.687-1.452-9.214-.489H125.469l-9.214.978-9.2,1.451-8.252,1.941-8.236,2.414-7.747,2.9" transform="translate(208.349 45.117)" fill="none" stroke="#fff" stroke-linecap="round" stroke-linejoin="round" stroke-miterlimit="10" stroke-width="1"/><path d="M83.119,99.3v1.452l1.452,1.467,2.414,1.452,3.408.473,3.392.489,3.865-.489,2.919-.963,2.414-.962.978-1.941v-.489" transform="translate(211.444 60.594)" fill="none" stroke="#fff" stroke-linecap="round" stroke-linejoin="round" stroke-miterlimit="10" stroke-width="1"/><path d="M85.573,99.091v1.451l1.467,1.452,2.414,1.452,3.392.978h7.274l2.9-.978,2.43-1.452.962-1.452v-.978" transform="translate(237.09 58.39)" fill="none" stroke="#fff" stroke-linecap="round" stroke-linejoin="round" stroke-miterlimit="10" stroke-width="1"/><path d="M86.378,101.208v1.452l1.452,1.452,2.919,1.451,2.9.978,3.881.473,3.392-.473,2.9-.978,2.43-.963.962-1.941v-.978" transform="translate(245.5 80.51)" fill="none" stroke="#fff" stroke-linecap="round" stroke-linejoin="round" stroke-miterlimit="10" stroke-width="1"/><path d="M85.742,103.112l3.881,2.43,3.392,2.414,3.881,2.43,3.392,1.941,3.392,2.414,3.881,2.43,3.392,2.43,3.881,2.414" transform="translate(238.861 100.405)" fill="none" stroke="#fff" stroke-linecap="round" stroke-linejoin="round" stroke-miterlimit="10" stroke-width="1"/><path d="M88.284,111.834l1.925-.963,2.43-.978,2.43-.963,1.941-.978,2.414-.963,1.941-.963,2.43-.978,2.414-.963" transform="translate(265.414 110.586)" fill="none" stroke="#fff" stroke-linecap="round" stroke-linejoin="round" stroke-miterlimit="10" stroke-width="1"/><path d="M87.987,106.842h.473l.978-.489.962-.489.978-.473,1.452-.489.962-.489.978-.473.962-.489" transform="translate(262.318 103.957)" fill="none" stroke="#fff" stroke-linecap="round" stroke-linejoin="round" stroke-miterlimit="10" stroke-width="1"/><path d="M86.97,106.653h.489l1.451-.963,1.452-.489.978-.489,1.452-.489.962-.473,1.451-.489,1.467-.489" transform="translate(251.691 96.864)" fill="none" stroke="#fff" stroke-linecap="round" stroke-linejoin="round" stroke-miterlimit="10" stroke-width="1"/><path d="M91.755,105.93h.963l.963-.489.978-.473.489-.489.962-.489h.978l.963-.489.962-.473" transform="translate(301.687 99.534)" fill="none" stroke="#fff" stroke-linecap="round" stroke-linejoin="round" stroke-miterlimit="10" stroke-width="1"/><path d="M92.051,104.779l.473-.489h.489l.978-.489h.963l.489-.473.962-.489h.489l.962-.489" transform="translate(304.783 92.452)" fill="none" stroke="#fff" stroke-linecap="round" stroke-linejoin="round" stroke-miterlimit="10" stroke-width="1"/><path d="M91.246,101.588l2.9.978,3.881,1.452,3.392.963,3.881,1.452L108.7,107.9l3.881,1.452,3.865,1.452,3.392,1.452" transform="translate(296.373 84.48)" fill="none" stroke="#fff" stroke-linecap="round" stroke-linejoin="round" stroke-miterlimit="10" stroke-width="1"/><path d="M93.743,105.168l.978-.489.962-.473h.978l.962-.489.489-.489.962-.489h.978l.962-.473" transform="translate(322.465 91.571)" fill="none" stroke="#fff" stroke-linecap="round" stroke-linejoin="round" stroke-miterlimit="10" stroke-width="1"/><path d="M90.145,101.292l2.43,2.9,1.941,2.919,2.414,2.9,2.43,2.43,2.43,2.9,1.925,2.9,2.43,2.919,2.43,2.9" transform="translate(284.868 81.388)" fill="none" stroke="#fff" stroke-linecap="round" stroke-linejoin="round" stroke-miterlimit="10" stroke-width="1"/><path d="M109.915,108.827l.489.978" transform="translate(491.449 160.123)" fill="none" stroke="#fff" stroke-linecap="round" stroke-linejoin="round" stroke-miterlimit="10" stroke-width="1"/><path d="M110,109l.489,1.452.473.978" transform="translate(492.338 161.9)" fill="none" stroke="#fff" stroke-linecap="round" stroke-linejoin="round" stroke-miterlimit="10" stroke-width="1"/><path d="M114.23,109.589l.978,2.919.473,4.355-.963,3.881-1.941,3.392-2.9,2.9" transform="translate(491.016 168.086)" fill="none" stroke="#fff" stroke-linecap="round" stroke-linejoin="round" stroke-miterlimit="10" stroke-width="1"/><path d="M105.767,101.122l.963,1.452" transform="translate(448.105 79.611)" fill="none" stroke="#fff" stroke-linecap="round" stroke-linejoin="round" stroke-miterlimit="10" stroke-width="1"/><path d="M105.851,101.249l.978,2.43,2.414,3.881,2.43,4.844,2.43,4.354,2.9,4.86,1.452,3.392,1.941,2.9,5.333,10.666,5.822,10.177,6.784,12.606,7.258,13.569,7.273,14.058" transform="translate(448.983 80.938)" fill="none" stroke="#fff" stroke-linecap="round" stroke-linejoin="round" stroke-miterlimit="10" stroke-width="1"/><path d="M83.626,112.885l2.43-1.452,2.9-.978L91.388,109l2.9-.963,2.43-.978,2.9-1.452,2.43-.963,2.414-1.452" transform="translate(216.743 101.303)" fill="none" stroke="#fff" stroke-linecap="round" stroke-linejoin="round" stroke-miterlimit="10" stroke-width="1"/><path d="M85.446,103.2l.978.473.473.489.978.489.489.473.962.489.978.979h.963" transform="translate(235.765 101.304)" fill="none" stroke="#fff" stroke-linecap="round" stroke-linejoin="round" stroke-miterlimit="10" stroke-width="1"/><path d="M91.7,103.494l-.963.473-.489.489-.978.489h-.962l-.489.473-.962.489h-.489l-.962.489" transform="translate(235.333 104.397)" fill="none" stroke="#fff" stroke-linecap="round" stroke-linejoin="round" stroke-miterlimit="10" stroke-width="1"/><path d="M85.4,103.748l5.806,3.881,2.919,1.941,2.9,1.925,2.9,1.941,2.919,1.941,5.806,3.881" transform="translate(235.333 107.051)" fill="none" stroke="#fff" stroke-linecap="round" stroke-linejoin="round" stroke-miterlimit="10" stroke-width="1"/><path d="M94.953,105.1l-.962.489h-.978l-.962.473-1.452.489-.978.489-.962.489-.978.473-.962.489" transform="translate(249.041 121.2)" fill="none" stroke="#fff" stroke-linecap="round" stroke-linejoin="round" stroke-miterlimit="10" stroke-width="1"/><path d="M107.956,119.107l-2.9-1.941-2.919-1.941-5.806-3.881-2.919-1.452-2.9-1.941-2.9-1.925-2.919-1.941" transform="translate(227.803 110.595)" fill="none" stroke="#fff" stroke-linecap="round" stroke-linejoin="round" stroke-miterlimit="10" stroke-width="1"/><path d="M90.876,104.087l-.962.473-.489.489h-.962l-.978.489-.962.489-.489.473H85.07l-.978.489" transform="translate(221.611 110.593)" fill="none" stroke="#fff" stroke-linecap="round" stroke-linejoin="round" stroke-miterlimit="10" stroke-width="1"/><path d="M88.959,107.434l-.473-.489L88,106.472h-.978l-.473-.489-.978-.489-.473-.489-.978-.473-.489-.489" transform="translate(216.743 110.143)" fill="none" stroke="#fff" stroke-linecap="round" stroke-linejoin="round" stroke-miterlimit="10" stroke-width="1"/><path d="M128.667,139.552,104.921,119.2" transform="translate(439.266 268.508)" fill="none" stroke="#fff" stroke-linecap="round" stroke-linejoin="round" stroke-miterlimit="10" stroke-width="1"/><path d="M104.5,115.982l4.859,36.841" transform="translate(434.824 234.889)" fill="none" stroke="#fff" stroke-linecap="round" stroke-linejoin="round" stroke-miterlimit="10" stroke-width="1"/><path d="M84.684,104.087v.473" transform="translate(227.803 110.593)" fill="none" stroke="#fff" stroke-linecap="round" stroke-linejoin="round" stroke-miterlimit="10" stroke-width="1"/><path d="M86.717,105.4v.963" transform="translate(249.042 124.303)" fill="none" stroke="#fff" stroke-linecap="round" stroke-linejoin="round" stroke-miterlimit="10" stroke-width="1"/><path d="M87.436,105.1v.489" transform="translate(256.558 121.2)" fill="none" stroke="#fff" stroke-linecap="round" stroke-linejoin="round" stroke-miterlimit="10" stroke-width="1"/><path d="M72.323,104.89h.489" transform="translate(98.638 118.984)" fill="none" stroke="#fff" stroke-linecap="round" stroke-linejoin="round" stroke-miterlimit="10" stroke-width="1"/><path d="M70.356,111.652l-.489-.473v-.489" transform="translate(72.977 179.591)" fill="none" stroke="#fff" stroke-linecap="round" stroke-linejoin="round" stroke-miterlimit="10" stroke-width="1"/><path d="M97.106,102.689l-1.467.489-1.451.963-.962.489-1.452.473-.978.489-2.9.978-.963.473" transform="translate(251.259 95.985)" fill="none" stroke="#fff" stroke-linecap="round" stroke-linejoin="round" stroke-miterlimit="10" stroke-width="1"/><path d="M86.929,103.07l.473.489.978.489.473.489.978.473.489.489.962.489.962.473.489.489" transform="translate(251.259 99.966)" fill="none" stroke="#fff" stroke-linecap="round" stroke-linejoin="round" stroke-miterlimit="10" stroke-width="1"/><path d="M87.436,106.949l.978-.489,1.452-.473.962-.489.978-.489.962-.473,1.452-.489.978-.489.962-.489" transform="translate(256.558 99.968)" fill="none" stroke="#fff" stroke-linecap="round" stroke-linejoin="round" stroke-miterlimit="10" stroke-width="1"/><path d="M88.2,103.07l.489.489.962.489.489.489.962.473.489.489.978.489.962.963" transform="translate(264.522 99.966)" fill="none" stroke="#fff" stroke-linecap="round" stroke-linejoin="round" stroke-miterlimit="10" stroke-width="1"/><path d="M96.627,103.409l-.962.489-.978.489-.962.473-1.452.489-.978.489-.962.473-.978.489-1.452.489" transform="translate(261.425 103.509)" fill="none" stroke="#fff" stroke-linecap="round" stroke-linejoin="round" stroke-miterlimit="10" stroke-width="1"/><path d="M87.9,103.748l.978.489.963.473.489.489.962.489.978.473.473.489.978.489.473.489" transform="translate(261.425 107.051)" fill="none" stroke="#fff" stroke-linecap="round" stroke-linejoin="round" stroke-miterlimit="10" stroke-width="1"/><path d="M88.452,108.073l1.467-.489,1.452-.489.962-.489,1.452-.473.978-.978,1.452-.473,1.451-.489.978-.489" transform="translate(267.171 106.607)" fill="none" stroke="#fff" stroke-linecap="round" stroke-linejoin="round" stroke-miterlimit="10" stroke-width="1"/><path d="M89.342,103.7l.962.489.489.489.963.473.978.978.963.473.489.489.963.489" transform="translate(276.474 106.602)" fill="none" stroke="#fff" stroke-linecap="round" stroke-linejoin="round" stroke-miterlimit="10" stroke-width="1"/><path d="M106.207,104.044l-2.414.963-2.43.978-1.941.963-2.414.978-1.941.963-2.43.978-2.43.963-1.925.963" transform="translate(265.414 110.144)" fill="none" stroke="#fff" stroke-linecap="round" stroke-linejoin="round" stroke-miterlimit="10" stroke-width="1"/><path d="M114.836,121.972l-3.881-2.414-3.392-2.43-3.392-2.414-3.881-2.43-3.392-2.43-3.881-1.925-3.392-2.43-3.881-2.43" transform="translate(238.861 99.968)" fill="none" stroke="#fff" stroke-linecap="round" stroke-linejoin="round" stroke-miterlimit="10" stroke-width="1"/><path d="M85.742,110.141l2.43-.963,2.43-.978,1.925-.963,2.43-.963L96.9,105.3l2.43-.963,2.414-.978,1.941-.963" transform="translate(238.861 92.895)" fill="none" stroke="#fff" stroke-linecap="round" stroke-linejoin="round" stroke-miterlimit="10" stroke-width="1"/><path d="M87.309,102.393l.962.489.489.473.978.489.473.489.489.473.963.489h.489l.978.489" transform="translate(255.233 92.892)" fill="none" stroke="#fff" stroke-linecap="round" stroke-linejoin="round" stroke-miterlimit="10" stroke-width="1"/><path d="M85.742,103.07v.489" transform="translate(238.861 99.966)" fill="none" stroke="#fff" stroke-linecap="round" stroke-linejoin="round" stroke-miterlimit="10" stroke-width="1"/><path d="M88.284,104.721v.489" transform="translate(265.414 117.218)" fill="none" stroke="#fff" stroke-linecap="round" stroke-linejoin="round" stroke-miterlimit="10" stroke-width="1"/><path d="M89.849,104.044v.489" transform="translate(281.772 110.144)" fill="none" stroke="#fff" stroke-linecap="round" stroke-linejoin="round" stroke-miterlimit="10" stroke-width="1"/><path d="M75.142,102.732H74.18l-.489.473-.978.978v.963l-.473.489v1.452" transform="translate(97.76 96.435)" fill="none" stroke="#fff" stroke-linecap="round" stroke-linejoin="round" stroke-miterlimit="10" stroke-width="1"/><path d="M84.091,104.34v.963" transform="translate(221.61 113.237)" fill="none" stroke="#fff" stroke-linecap="round" stroke-linejoin="round" stroke-miterlimit="10" stroke-width="1"/><path d="M83.626,104.044v.489" transform="translate(216.743 110.144)" fill="none" stroke="#fff" stroke-linecap="round" stroke-linejoin="round" stroke-miterlimit="10" stroke-width="1"/><path d="M89.172,101.631l.473.489.978.473.489.489.473.489.489.473.489.489.473.489.489.489" transform="translate(274.701 84.93)" fill="none" stroke="#fff" stroke-linecap="round" stroke-linejoin="round" stroke-miterlimit="10" stroke-width="1"/><path d="M97.069,101.97l-5.333,1.452-2.414.963-.489.489v1.451l.489.489,1.452.963h.962l1.452.489,4.37-.489h9.214l3.865.979,3.392,1.452,2.43,2.414,1.451,1.941-.489,1.941-2.414,2.919-5.333,2.9-5.822,1.451h-1.941" transform="translate(271.16 88.472)" fill="none" stroke="#fff" stroke-linecap="round" stroke-linejoin="round" stroke-miterlimit="10" stroke-width="1"/><path d="M93.5,106.968l-.473-.489-.489-.473-.978-.978-.473-.489H90.6l-.489-.473-.473-.489" transform="translate(279.569 105.274)" fill="none" stroke="#fff" stroke-linecap="round" stroke-linejoin="round" stroke-miterlimit="10" stroke-width="1"/><path d="M106.889,123.923l1.925-.489,5.333-1.941,1.941-.473.978-.978V118.1l-.489-.473-.962-.489-1.467-.489H99.615l-4.37-.963-3.392-.978-2.414-1.941-1.452-2.414.473-1.941,1.452-1.941,4.37-2.43,6.3-1.925.978-.489" transform="translate(262.318 84.93)" fill="none" stroke="#fff" stroke-linecap="round" stroke-linejoin="round" stroke-miterlimit="10" stroke-width="1"/><path d="M89.976,103.874v.963" transform="translate(283.096 108.368)" fill="none" stroke="#fff" stroke-linecap="round" stroke-linejoin="round" stroke-miterlimit="10" stroke-width="1"/><path d="M89.553,101.97v.963" transform="translate(278.676 88.472)" fill="none" stroke="#fff" stroke-linecap="round" stroke-linejoin="round" stroke-miterlimit="10" stroke-width="1"/><path d="M85.955,103.494v.963" transform="translate(241.078 104.397)" fill="none" stroke="#fff" stroke-linecap="round" stroke-linejoin="round" stroke-miterlimit="10" stroke-width="1"/><path d="M89.638,103.578v.489" transform="translate(279.569 105.275)" fill="none" stroke="#fff" stroke-linecap="round" stroke-linejoin="round" stroke-miterlimit="10" stroke-width="1"/><path d="M88.664,103.409v.489" transform="translate(269.388 103.509)" fill="none" stroke="#fff" stroke-linecap="round" stroke-linejoin="round" stroke-miterlimit="10" stroke-width="1"/><path d="M87.818,102.689v.963" transform="translate(260.547 95.985)" fill="none" stroke="#fff" stroke-linecap="round" stroke-linejoin="round" stroke-miterlimit="10" stroke-width="1"/><path d="M90.145,104.775l.978-.473,1.452-.489.962-.489,1.452-.473.978-.489.962-.489,1.452-.489.978-.473" transform="translate(284.868 77.413)" fill="none" stroke="#fff" stroke-linecap="round" stroke-linejoin="round" stroke-miterlimit="10" stroke-width="1"/><path d="M90.95,100.912l4.844,1.941,5.333,1.925,4.844,1.467,4.844,1.925,4.859,1.941,14.531,5.822" transform="translate(293.277 77.417)" fill="none" stroke="#fff" stroke-linecap="round" stroke-linejoin="round" stroke-miterlimit="10" stroke-width="1"/><path d="M101.017,102.224h-.962l-.978.489-.473.473-.978.489h-.962l-.978.489-.963.489h-.978" transform="translate(322.466 91.126)" fill="none" stroke="#fff" stroke-linecap="round" stroke-linejoin="round" stroke-miterlimit="10" stroke-width="1"/><path d="M120.282,112.171,116.89,110.7l-3.865-.963-3.392-1.452-3.881-1.452-3.881-1.467-3.392-1.452L94.6,102.467,91.2,101.5" transform="translate(295.927 83.607)" fill="none" stroke="#fff" stroke-linecap="round" stroke-linejoin="round" stroke-miterlimit="10" stroke-width="1"/><path d="M91.2,101.5l.489.963.962.978.978.473.489.978.962.963.489.978.963.963.489.978" transform="translate(295.927 83.603)" fill="none" stroke="#fff" stroke-linecap="round" stroke-linejoin="round" stroke-miterlimit="10" stroke-width="1"/><path d="M91.712,103.478h.962l.489-.489h.963l.489-.489H95.1l.489-.489h.963" transform="translate(301.241 88.899)" fill="none" stroke="#fff" stroke-linecap="round" stroke-linejoin="round" stroke-miterlimit="10" stroke-width="1"/><path d="M92.135,102.011l.489.489h.489l.963.489,1.452,1.452.978.489.473.473" transform="translate(305.661 88.901)" fill="none" stroke="#fff" stroke-linecap="round" stroke-linejoin="round" stroke-miterlimit="10" stroke-width="1"/><path d="M98.3,102.308H97.83l-.978.489-.963.489H95.4l-.963.489H93.46l-.489.473-.962.489" transform="translate(304.337 92.004)" fill="none" stroke="#fff" stroke-linecap="round" stroke-linejoin="round" stroke-miterlimit="10" stroke-width="1"/><path d="M92.008,102.52l.489.489.473.963.978.489.489.489.473.963.489.489.489.473.473.978" transform="translate(304.336 94.219)" fill="none" stroke="#fff" stroke-linecap="round" stroke-linejoin="round" stroke-miterlimit="10" stroke-width="1"/><path d="M99.013,102.986l-.962.489h-.963l-.978.473-.963.489-.489.489H93.68l-.963.489-.963.473" transform="translate(301.687 99.089)" fill="none" stroke="#fff" stroke-linecap="round" stroke-linejoin="round" stroke-miterlimit="10" stroke-width="1"/><path d="M108.573,124.032l-4.859-5.806-1.925-2.919L96.93,109.5l-1.941-2.919-2.414-2.414-2.43-2.919" transform="translate(284.868 80.939)" fill="none" stroke="#fff" stroke-linecap="round" stroke-linejoin="round" stroke-miterlimit="10" stroke-width="1"/><path d="M90.145,101.249v.489" transform="translate(284.868 80.938)" fill="none" stroke="#fff" stroke-linecap="round" stroke-linejoin="round" stroke-miterlimit="10" stroke-width="1"/><path d="M91.755,103.239v.489" transform="translate(301.687 101.732)" fill="none" stroke="#fff" stroke-linecap="round" stroke-linejoin="round" stroke-miterlimit="10" stroke-width="1"/><path d="M92.389,102.986v.489" transform="translate(308.311 99.089)" fill="none" stroke="#fff" stroke-linecap="round" stroke-linejoin="round" stroke-miterlimit="10" stroke-width="1"/><path d="M93.743,102.436v.963" transform="translate(322.465 93.342)" fill="none" stroke="#fff" stroke-linecap="round" stroke-linejoin="round" stroke-miterlimit="10" stroke-width="1"/><path d="M90.829,115.049l-2.43-1.941-2.9-1.452-2.43-1.451-2.414-1.941-2.919-1.452-2.414-1.452-2.43-1.941-2.43-1.452" transform="translate(79.169 88.468)" fill="none" stroke="#fff" stroke-linecap="round" stroke-linejoin="round" stroke-miterlimit="10" stroke-width="1"/><path d="M72.89,101.588l-.489.489-.473.489-.489.473-.489.489v.489l-.489.473v1.467" transform="translate(79.17 84.48)" fill="none" stroke="#fff" stroke-linecap="round" stroke-linejoin="round" stroke-miterlimit="10" stroke-width="1"/><path d="M68.852,104.3l5.333,9.7" transform="translate(62.365 112.788)" fill="none" stroke="#fff" stroke-linecap="round" stroke-linejoin="round" stroke-miterlimit="10" stroke-width="1"/><path d="M87.264,101.97,68.852,128.618" transform="translate(62.365 88.472)" fill="none" stroke="#fff" stroke-linecap="round" stroke-linejoin="round" stroke-miterlimit="10" stroke-width="1"/><path d="M88.708,119.2l-19.391-14.06" transform="translate(67.232 121.649)" fill="none" stroke="#fff" stroke-linecap="round" stroke-linejoin="round" stroke-miterlimit="10" stroke-width="1"/><path d="M92.558,102.308v.489" transform="translate(310.082 92.004)" fill="none" stroke="#fff" stroke-linecap="round" stroke-linejoin="round" stroke-miterlimit="10" stroke-width="1"/><path d="M106.995,121.02l10.666,8.725" transform="translate(460.937 287.532)" fill="none" stroke="#fff" stroke-linecap="round" stroke-linejoin="round" stroke-miterlimit="10" stroke-width="1"/><path d="M109.659,133.418l-2.919-13.584" transform="translate(458.273 275.134)" fill="none" stroke="#fff" stroke-linecap="round" stroke-linejoin="round" stroke-miterlimit="10" stroke-width="1"/><path d="M83.922,105.755l.489-1.94,2.43-1.452,2.414-.978,3.392-.473h3.881l3.392.473,2.43,1.467,1.941,1.452.962,1.941-.489,1.452-1.941,1.941-2.414.963-3.392.963H93.625l-3.392-.473-2.919-.978L84.9,108.66l-.978-1.941v-.963" transform="translate(219.839 77.417)" fill="none" stroke="#fff" stroke-linecap="round" stroke-linejoin="round" stroke-miterlimit="10" stroke-width="1"/><path d="M94.379,102.224v.489" transform="translate(329.104 91.126)" fill="none" stroke="#fff" stroke-linecap="round" stroke-linejoin="round" stroke-miterlimit="10" stroke-width="1"/><path d="M91.5,107.77l2.43-.963,2.9-.978,2.43-.963,2.9-.978,2.43-.963,2.9-.978,2.43-.963,2.414-.963" transform="translate(299.022 68.12)" fill="none" stroke="#fff" stroke-linecap="round" stroke-linejoin="round" stroke-miterlimit="10" stroke-width="1"/><path d="M93.32,100.023l.978.473.473.489.978.489.489.473.473.489.978.489.473.489.978.473" transform="translate(318.044 68.127)" fill="none" stroke="#fff" stroke-linecap="round" stroke-linejoin="round" stroke-miterlimit="10" stroke-width="1"/><path d="M99.574,100.36H98.6l-.473.489h-.978l-.962.489-.489.473H94.73l-.978.489h-.473" transform="translate(317.612 71.649)" fill="none" stroke="#fff" stroke-linecap="round" stroke-linejoin="round" stroke-miterlimit="10" stroke-width="1"/><path d="M93.279,100.53l8.709,5.822,2.919,1.94,2.9,1.941,2.9,1.925,2.919,1.941,2.9,1.941" transform="translate(317.613 73.425)" fill="none" stroke="#fff" stroke-linecap="round" stroke-linejoin="round" stroke-miterlimit="10" stroke-width="1"/><path d="M102.827,101.884h-.963l-.978.489-1.452.489-.963.473-.978.489h-.963l-.978.489-.962.489" transform="translate(331.321 87.574)" fill="none" stroke="#fff" stroke-linecap="round" stroke-linejoin="round" stroke-miterlimit="10" stroke-width="1"/><path d="M115.83,115.862l-2.9-1.941-2.919-1.941L104.2,108.1l-2.919-1.941-5.806-3.881-2.919-1.452" transform="translate(310.082 76.515)" fill="none" stroke="#fff" stroke-linecap="round" stroke-linejoin="round" stroke-miterlimit="10" stroke-width="1"/><path d="M98.75,100.826h-.962l-.489.489h-.963l-.978.489-.962.473h-.489l-.962.489-.978.489" transform="translate(303.89 76.518)" fill="none" stroke="#fff" stroke-linecap="round" stroke-linejoin="round" stroke-miterlimit="10" stroke-width="1"/><path d="M96.833,104.578l-.489-.489-.473-.489-.978-.473-.473-.489-.978-.489-.489-.489-.962-.473L91.5,100.7" transform="translate(299.023 75.193)" fill="none" stroke="#fff" stroke-linecap="round" stroke-linejoin="round" stroke-miterlimit="10" stroke-width="1"/><path d="M86.378,105.543l.978-1.941,1.925-1.452,2.43-.963L95.1,100.7h3.881l3.392.963,2.43.978,1.925,1.941.978,1.452-.489,1.941-1.941,1.452-2.414,1.452-3.392.489H96.081l-3.392-.489-2.919-.963-2.414-1.452-.978-1.941v-.978" transform="translate(245.5 75.19)" fill="none" stroke="#fff" stroke-linecap="round" stroke-linejoin="round" stroke-miterlimit="10" stroke-width="1"/><path d="M86.463,105.1l.962-1.452,1.452-1.452,2.919-.978,2.9-.473,2.9.473,3.392.489,2.43.978,1.451,1.452.489,1.452-.489,1.941-1.451,1.452-1.941.963-2.9.489H95.188l-2.919-.489-2.9-.963-1.941-1.452-.962-1.452V105.1" transform="translate(246.392 75.638)" fill="none" stroke="#fff" stroke-linecap="round" stroke-linejoin="round" stroke-miterlimit="10" stroke-width="1"/><path d="M105.365,105.669V105.2l-.978-1.941-1.941-.978-2.9-.963-2.9-.489H93.247l-2.919.489-1.941.963-1.452,1.467-.473.963" transform="translate(246.392 76.518)" fill="none" stroke="#fff" stroke-linecap="round" stroke-linejoin="round" stroke-miterlimit="10" stroke-width="1"/><path d="M92.558,100.826v.489" transform="translate(310.082 76.518)" fill="none" stroke="#fff" stroke-linecap="round" stroke-linejoin="round" stroke-miterlimit="10" stroke-width="1"/><path d="M94.591,102.139v.473" transform="translate(331.321 90.238)" fill="none" stroke="#fff" stroke-linecap="round" stroke-linejoin="round" stroke-miterlimit="10" stroke-width="1"/><path d="M95.31,101.884v.489" transform="translate(338.837 87.574)" fill="none" stroke="#fff" stroke-linecap="round" stroke-linejoin="round" stroke-miterlimit="10" stroke-width="1"/><path d="M82.271,105.271l.978-1.941,1.941-1.451,2.9-.963,3.392-.978h3.392l3.392.978,2.9.963,1.941,1.451.489,1.941-.489,1.941-1.452,1.452-2.9.963-2.919.978H91.974l-3.392-.489-2.919-.963L83.723,107.7l-1.452-1.467v-.963" transform="translate(202.588 67.231)" fill="none" stroke="#fff" stroke-linecap="round" stroke-linejoin="round" stroke-miterlimit="10" stroke-width="1"/><path d="M82.357,104.377l.962-1.941,1.941-.963,2.43-.978,2.9-.473h3.392l2.9.473,2.43.978,1.451,1.452.978,1.452-.489,1.452-1.452,1.452-2.43.978-2.9.963H91.082l-2.919-.489-2.414-.963-1.941-.963-.978-1.467-.473-.963" transform="translate(203.482 68.124)" fill="none" stroke="#fff" stroke-linecap="round" stroke-linejoin="round" stroke-miterlimit="10" stroke-width="1"/><path d="M101.258,104.908l.489-.963-1.467-1.452-1.925-1.452-2.43-.489-3.392-.489h-2.9l-2.919.978L84.3,102l-1.467,1.452-.473.978" transform="translate(203.482 68.555)" fill="none" stroke="#fff" stroke-linecap="round" stroke-linejoin="round" stroke-miterlimit="10" stroke-width="1"/><path d="M70.419,103.528v-.489l.473-.473h.489l.978-.978h.962" transform="translate(78.737 84.487)" fill="none" stroke="#fff" stroke-linecap="round" stroke-linejoin="round" stroke-miterlimit="10" stroke-width="1"/><path d="M70.419,101.758V103.7l.473.489" transform="translate(78.737 86.257)" fill="none" stroke="#fff" stroke-linecap="round" stroke-linejoin="round" stroke-miterlimit="10" stroke-width="1"/><path d="M68.809,104.087v1.452l.489.963" transform="translate(61.919 110.593)" fill="none" stroke="#fff" stroke-linecap="round" stroke-linejoin="round" stroke-miterlimit="10" stroke-width="1"/><path d="M68.809,128.422l2.43-3.881,10.177-15.02,5.822-7.763" transform="translate(61.919 86.258)" fill="none" stroke="#fff" stroke-linecap="round" stroke-linejoin="round" stroke-miterlimit="10" stroke-width="1"/><path d="M70.545,120.506l.962-3.392,1.451-3.392,1.941-3.881,1.941-3.392,1.941-3.881,2.43-3.392" transform="translate(80.062 59.265)" fill="none" stroke="#fff" stroke-linecap="round" stroke-linejoin="round" stroke-miterlimit="10" stroke-width="1"/><path d="M71.477,100.5l.473-.962h.978l.489-.489h.962" transform="translate(89.797 57.945)" fill="none" stroke="#fff" stroke-linecap="round" stroke-linejoin="round" stroke-miterlimit="10" stroke-width="1"/><path d="M84.727,104.585l.978-1.452,1.925-1.467,2.919-1.451,3.392-.489,6.784.978,2.9.962,1.941,1.941.489,1.452L105.569,107l-1.451,1.452-2.9.978-2.919.963H94.414l-3.392-.473-2.9-.978-1.941-1.452-1.452-1.941v-.963" transform="translate(228.249 65.019)" fill="none" stroke="#fff" stroke-linecap="round" stroke-linejoin="round" stroke-miterlimit="10" stroke-width="1"/><path d="M68.809,115.592l.978-3.881,1.452-3.392,1.941-3.392.962-1.941" transform="translate(61.919 99.088)" fill="none" stroke="#fff" stroke-linecap="round" stroke-linejoin="round" stroke-miterlimit="10" stroke-width="1"/><path d="M91.5,100.7v.963" transform="translate(299.022 75.191)" fill="none" stroke="#fff" stroke-linecap="round" stroke-linejoin="round" stroke-miterlimit="10" stroke-width="1"/><path d="M91.966,101.038v.489" transform="translate(303.89 78.733)" fill="none" stroke="#fff" stroke-linecap="round" stroke-linejoin="round" stroke-miterlimit="10" stroke-width="1"/><path d="M87.182,104.4l.962-1.941,1.941-1.452,2.9-.978,3.408-.473h3.392l3.392.962,2.9.963,1.941,1.941.489,1.467-.489,1.925-1.452,1.467-2.919.963-2.9.963H96.87l-3.392-.473-2.9-1.452-1.941-1.467-1.452-1.452V104.4" transform="translate(253.909 63.258)" fill="none" stroke="#fff" stroke-linecap="round" stroke-linejoin="round" stroke-miterlimit="10" stroke-width="1"/><path d="M87.309,103.969l.489-1.451,1.941-1.467,2.414-.963,2.919-.489,3.392.489,2.9.489,2.414.962,1.467,1.452.962,1.467-.489,1.452-1.452,1.452-2.414.963-2.919.489-3.392.489-2.9-.489-2.43-.963-1.941-1.467-.962-1.452v-.962" transform="translate(255.233 63.69)" fill="none" stroke="#fff" stroke-linecap="round" stroke-linejoin="round" stroke-miterlimit="10" stroke-width="1"/><path d="M106.168,104.528l.489-.963-1.452-1.467-1.941-.962-2.43-.978-3.392-.473h-2.9l-2.9.473-2.43.978-1.452,1.452-.489.978" transform="translate(254.787 64.584)" fill="none" stroke="#fff" stroke-linecap="round" stroke-linejoin="round" stroke-miterlimit="10" stroke-width="1"/><path d="M93.829,100.36v.489" transform="translate(323.358 71.649)" fill="none" stroke="#fff" stroke-linecap="round" stroke-linejoin="round" stroke-miterlimit="10" stroke-width="1"/><path d="M83.119,103.639l.473-1.452,1.941-1.452,2.919-.978,3.392-.962,3.865.473,3.392.489,2.43.978,1.941,1.452.962,1.941-.473,1.452-1.941,1.452-2.43,1.451-3.392.489-3.392.473-3.392-.473-3.392-.978-1.941-1.452-.962-1.941v-.962" transform="translate(211.444 55.295)" fill="none" stroke="#fff" stroke-linecap="round" stroke-linejoin="round" stroke-miterlimit="10" stroke-width="1"/><path d="M83.2,102.76l.489-1.452,1.941-.978,2.414-.962,3.392-.489h2.919l2.9.489,2.43.962,1.941,1.452.473,1.467-.473,1.452-1.467,1.452-1.941.962-2.9.489h-6.3l-2.919-.962-1.925-1.467-.978-1.452v-.962" transform="translate(212.323 56.173)" fill="none" stroke="#fff" stroke-linecap="round" stroke-linejoin="round" stroke-miterlimit="10" stroke-width="1"/><path d="M102.1,103.766V102.8l-.962-1.467L99.2,99.884l-2.9-.473-2.919-.489H89.987l-2.9.963-2.43.978-.962,1.451-.489.963" transform="translate(212.323 56.62)" fill="none" stroke="#fff" stroke-linecap="round" stroke-linejoin="round" stroke-miterlimit="10" stroke-width="1"/><path d="M85.573,102.98l.489-1.452L88,100.077l2.9-.978,3.392-.473h3.881l3.392.473,2.43,1.467,1.941,1.452.962,1.452-.489,1.941-1.925,1.452-2.43.963-3.392.978H95.276l-3.392-.489-3.392-.962L86.551,105.9l-.978-1.941v-.978" transform="translate(237.09 53.524)" fill="none" stroke="#fff" stroke-linecap="round" stroke-linejoin="round" stroke-miterlimit="10" stroke-width="1"/><path d="M102.078,98.964l-16.961,9.687-17.45,9.688" transform="translate(49.982 57.066)" fill="none" stroke="#fff" stroke-linecap="round" stroke-linejoin="round" stroke-miterlimit="10" stroke-width="1"/><path d="M70.672,99.411l1.941-.489,2.9.962" transform="translate(81.387 56.619)" fill="none" stroke="#fff" stroke-linecap="round" stroke-linejoin="round" stroke-miterlimit="10" stroke-width="1"/><path d="M74.014,99.984h-.489l-.489-.489h-.962v-.489H71.1" transform="translate(85.808 57.498)" fill="none" stroke="#fff" stroke-linecap="round" stroke-linejoin="round" stroke-miterlimit="10" stroke-width="1"/><path d="M102.683,95.628l-4.844-.473h-.962" transform="translate(355.21 17.251)" fill="none" stroke="#fff" stroke-linecap="round" stroke-linejoin="round" stroke-miterlimit="10" stroke-width="1"/><path d="M72.8,100.054v-.962H71.35" transform="translate(88.472 58.391)" fill="none" stroke="#fff" stroke-linecap="round" stroke-linejoin="round" stroke-miterlimit="10" stroke-width="1"/><path d="M73.764,98.71,72.8,99.2l-.978,1.452-.473.978v1.452" transform="translate(88.471 54.402)" fill="none" stroke="#fff" stroke-linecap="round" stroke-linejoin="round" stroke-miterlimit="10" stroke-width="1"/><path d="M74.014,98.583l-.489.489-.978.473v.489l-.473.489-.489.489v.962l-.489.489v.962" transform="translate(85.808 53.077)" fill="none" stroke="#fff" stroke-linecap="round" stroke-linejoin="round" stroke-miterlimit="10" stroke-width="1"/><path d="M70.672,102.506V99.1h.489v-.473" transform="translate(81.387 53.524)" fill="none" stroke="#fff" stroke-linecap="round" stroke-linejoin="round" stroke-miterlimit="10" stroke-width="1"/><path d="M70.715,99.518l2.9-.978,4.37.489" transform="translate(81.833 52.632)" fill="none" stroke="#fff" stroke-linecap="round" stroke-linejoin="round" stroke-miterlimit="10" stroke-width="1"/><path d="M72.323,111.772l3.881-2.414,8.725-5.822L94.617,98.2l4.37-2.414" transform="translate(98.638 23.889)" fill="none" stroke="#fff" stroke-linecap="round" stroke-linejoin="round" stroke-miterlimit="10" stroke-width="1"/><path d="M69.075,100.276l-.473.489-.489.473v.978l-.489.963.489.489v.963" transform="translate(49.535 70.771)" fill="none" stroke="#fff" stroke-linecap="round" stroke-linejoin="round" stroke-miterlimit="10" stroke-width="1"/><path d="M67.751,117.523l16.977-9.7,16.961-9.2" transform="translate(50.859 53.524)" fill="none" stroke="#fff" stroke-linecap="round" stroke-linejoin="round" stroke-miterlimit="10" stroke-width="1"/><path d="M80.353,98.8l-4.844,2.9-6.784,4.844" transform="translate(61.04 55.295)" fill="none" stroke="#fff" stroke-linecap="round" stroke-linejoin="round" stroke-miterlimit="10" stroke-width="1"/><path d="M95.606,95.281H96.1" transform="translate(341.934 18.576)" fill="none" stroke="#fff" stroke-linecap="round" stroke-linejoin="round" stroke-miterlimit="10" stroke-width="1"/><path d="M91.882,94.772h0" transform="translate(303.012 13.263)" fill="none" stroke="#fff" stroke-linecap="round" stroke-linejoin="round" stroke-miterlimit="10" stroke-width="1"/><path d="M77.954,245.346l15.02,3.392,15.51,2.9,16,2.919,16,1.925,16.472,1.467L173.44,259.4l15.983.489H205.91l16.472-.489,16-.489,16-1.452,16-1.941,15.02-2.43,15.02-2.9,15.036-3.392,14.058-3.881,13.569-4.355,13.08-4.844,12.117-4.859,12.117-5.317,10.666-6.311,10.666-5.806,9.214-6.8,8.709-6.784,7.763-7.258,6.784-7.273,6.3-7.763,4.86-7.747,4.354-8.252,2.9-8.236,1.941-8.236L456,134.84V126.6l-.963-8.252" transform="translate(157.474 259.656)" fill="none" stroke="#fff" stroke-linecap="round" stroke-linejoin="round" stroke-miterlimit="10" stroke-width="1"/><path d="M170.414,273.21l-3.881-21.331L161.2,230.563l-6.3-21.332-5.333-15.02-6.3-15.036L136,165.117l-7.763-13.569-9.2-11.628L110.79,131.2l-8.236-6.784-8.725-4.844L85.1,116.649l-8.236-.963-7.763.963" transform="translate(65.014 231.792)" fill="none" stroke="#fff" stroke-linecap="round" stroke-linejoin="round" stroke-miterlimit="10" stroke-width="1"/><path d="M69.064,115.77h.473" transform="translate(64.583 232.673)" fill="none" stroke="#fff" stroke-linecap="round" stroke-linejoin="round" stroke-miterlimit="10" stroke-width="1"/><path d="M81.181,111.706,74.87,134.978l-5.806,23.256" transform="translate(64.582 190.207)" fill="none" stroke="#fff" stroke-linecap="round" stroke-linejoin="round" stroke-miterlimit="10" stroke-width="1"/><path d="M304.7,180.054l-15.51.473-15.509-.473-15.51-.489-31.019-2.9-15.02-2.43-15.036-2.9-14.531-3.392-14.058-3.392-13.569-4.37-13.1-4.844L129.257,150l-11.644-5.333-11.139-5.806L96.3,132.548l-9.7-6.784-8.725-6.784-7.747-7.273" transform="translate(75.641 190.2)" fill="none" stroke="#fff" stroke-linecap="round" stroke-linejoin="round" stroke-miterlimit="10" stroke-width="1"/><path d="M114.356,241.262,109.039,205.4l-6.311-36.352L95.455,137.54l-4.844-19.864" transform="translate(289.736 252.588)" fill="none" stroke="#fff" stroke-linecap="round" stroke-linejoin="round" stroke-miterlimit="10" stroke-width="1"/><path d="M280.265,121.739l-6.784,7.747-8.236,7.763-8.725,7.274-9.7,6.784-10.65,6.784-11.155,6.3-12.117,5.822-13.08,5.333-13.585,4.844L171.7,184.739l-15.036,3.881-15.51,3.392-15.509,2.919-16.472,2.414L92.685,198.8" transform="translate(311.402 295.046)" fill="none" stroke="#fff" stroke-linecap="round" stroke-linejoin="round" stroke-miterlimit="10" stroke-width="1"/><path d="M71.574,111.622h-.489l-.489.489v.473h-.473" transform="translate(75.641 189.329)" fill="none" stroke="#fff" stroke-linecap="round" stroke-linejoin="round" stroke-miterlimit="10" stroke-width="1"/><path d="M70.63,112l3.392,2.919,8.725,6.784,9.214,6.3,10.177,6.3,11.155,5.822,11.628,5.822,12.606,4.844,13.08,4.844L164.175,160l28.116,6.784,15.02,2.9,15.036,2.43,15.51,1.451,15.02,1.452,15.51.489,15.509.473,15.51-.473" transform="translate(80.941 193.3)" fill="none" stroke="#fff" stroke-linecap="round" stroke-linejoin="round" stroke-miterlimit="10" stroke-width="1"/><path d="M90.611,119v-1.452" transform="translate(289.735 251.255)" fill="none" stroke="#fff" stroke-linecap="round" stroke-linejoin="round" stroke-miterlimit="10" stroke-width="1"/><path d="M70.7,111.495v.473l-.489.489.489.489" transform="translate(76.52 188.002)" fill="none" stroke="#fff" stroke-linecap="round" stroke-linejoin="round" stroke-miterlimit="10" stroke-width="1"/><path d="M91.589,117.379h.473l.489.473v.489l-.489.489-.962.489h-.489" transform="translate(289.736 249.486)" fill="none" stroke="#fff" stroke-linecap="round" stroke-linejoin="round" stroke-miterlimit="10" stroke-width="1"/><path d="M77.234,149.128l15.509,3.881,16.472,3.392,16.488,2.43,16.472,2.414,16.961,1.467,16.977,1.452,17.434.489h16.977l16.961-.489,16.472-.978,16.977-1.452,15.983-2.414,16-2.43,15.51-2.9,15.02-3.881,14.547-3.881,14.058-4.844" transform="translate(149.958 500.296)" fill="none" stroke="#fff" stroke-linecap="round" stroke-linejoin="round" stroke-miterlimit="10" stroke-width="1"/><path d="M77.234,273.872,85.47,129.443" transform="translate(149.958 375.552)" fill="none" stroke="#fff" stroke-linecap="round" stroke-linejoin="round" stroke-miterlimit="10" stroke-width="1"/><path d="M103.777,228.349l11.628-5.822,11.155-6.3,9.688-6.784,9.7-7.274,8.236-7.274,7.273-7.747,6.3-7.763,5.333-8.236,4.844-8.236,2.919-8.236,2.414-8.725,1.452-8.725V131.9" transform="translate(427.311 401.222)" fill="none" stroke="#fff" stroke-linecap="round" stroke-linejoin="round" stroke-miterlimit="10" stroke-width="1"/><path d="M103.777,155.372V138.884" transform="translate(427.311 474.199)" fill="none" stroke="#fff" stroke-linecap="round" stroke-linejoin="round" stroke-miterlimit="10" stroke-width="1"/><path d="M129.869,149.049l-.489-4.844-1.941-3.865-3.392-2.43h-4.355l-4.844,1.452-4.844,3.881-4.37,4.355-2.9,5.822-1.452,5.822v1.925" transform="translate(401.219 464.023)" fill="none" stroke="#fff" stroke-linecap="round" stroke-linejoin="round" stroke-miterlimit="10" stroke-width="1"/><path d="M101.726,139.942l-.489,12.117v4.37" transform="translate(400.773 485.255)" fill="none" stroke="#fff" stroke-linecap="round" stroke-linejoin="round" stroke-miterlimit="10" stroke-width="1"/><path d="M92.685,132.891l.978-1.452.963-1.452.489-.963v-.978" transform="translate(311.407 360.959)" fill="none" stroke="#fff" stroke-linecap="round" stroke-linejoin="round" stroke-miterlimit="10" stroke-width="1"/><path d="M63.73,133.677l154.621,95.96" transform="translate(8.841 419.79)" fill="none" stroke="#fff" stroke-linecap="round" stroke-linejoin="round" stroke-miterlimit="10" stroke-width="1"/><path d="M63.73,284.081l11.155-164.8" transform="translate(8.841 269.386)" fill="none" stroke="#fff" stroke-linecap="round" stroke-linejoin="round" stroke-miterlimit="10" stroke-width="1"/><path d="M110.254,147.4,64.7,119.283" transform="translate(19.022 269.385)" fill="none" stroke="#fff" stroke-linecap="round" stroke-linejoin="round" stroke-miterlimit="10" stroke-width="1"/><path d="M73.526,115.77l-4.844,68.349" transform="translate(60.594 232.673)" fill="none" stroke="#fff" stroke-linecap="round" stroke-linejoin="round" stroke-miterlimit="10" stroke-width="1"/><path d="M159.608,117.167l-.963,6.3-1.941,6.311-2.919,6.3-3.865,5.822-5.333,5.806-5.822,5.333-6.784,5.333-7.763,4.859-8.236,4.844-9.214,3.866-9.687,3.881-1.941.489" transform="translate(337.063 247.271)" fill="none" stroke="#fff" stroke-linecap="round" stroke-linejoin="round" stroke-miterlimit="10" stroke-width="1"/><path d="M113.489,123.509l-1.452-.978-.978-.473h-1.452l-.963-.489" transform="translate(478.178 293.275)" fill="none" stroke="#fff" stroke-linecap="round" stroke-linejoin="round" stroke-miterlimit="10" stroke-width="1"/><path d="M92.9,195.725l16-1.452,15.509-2.43,15.02-2.9,15.02-3.392,14.058-3.392,13.585-4.355,13.569-4.859,24.234-10.666,10.666-5.806,10.177-6.311,9.687-6.784,8.236-6.784,7.763-7.258,6.784-7.763" transform="translate(313.624 293.282)" fill="none" stroke="#fff" stroke-linecap="round" stroke-linejoin="round" stroke-miterlimit="10" stroke-width="1"/><path d="M161.63,159.173l4.37-2.43,3.881-2.43,2.9-2.9,1.451-2.9.978-3.392v-3.392l-1.467-3.392-1.925-2.919-3.408-2.9-3.866-2.9-4.37-1.941-5.806-1.941-5.822-1.941-5.822-.963-6.3-.489h-6.784l-5.822.963-6.3.978-5.333,1.452-4.844,1.941-3.881,2.414L100.081,133l-2.43,2.9L96.2,138.8V142.2l.489,3.408,1.941,2.9,2.414,3.392,3.392,2.414,4.37,2.919,10.666,3.881,12.591,1.925h12.606l6.311-.963,5.317-1.452,5.333-1.451" transform="translate(348.128 301.245)" fill="none" stroke="#fff" stroke-linecap="round" stroke-linejoin="round" stroke-miterlimit="10" stroke-width="1"/><path d="M107.556,117.529l-.963-.489h-4.37l-1.452,1.451" transform="translate(395.905 245.947)" fill="none" stroke="#fff" stroke-linecap="round" stroke-linejoin="round" stroke-miterlimit="10" stroke-width="1"/><path d="M110.636,123.3l-2.414-1.941" transform="translate(473.76 291.059)" fill="none" stroke="#fff" stroke-linecap="round" stroke-linejoin="round" stroke-miterlimit="10" stroke-width="1"/><path d="M146.93,145.672l-45.566-28.589" transform="translate(402.099 246.393)" fill="none" stroke="#fff" stroke-linecap="round" stroke-linejoin="round" stroke-miterlimit="10" stroke-width="1"/><path d="M110.863,122.016h-1.452l-.979-.489" transform="translate(475.96 292.833)" fill="none" stroke="#fff" stroke-linecap="round" stroke-linejoin="round" stroke-miterlimit="10" stroke-width="1"/><path d="M134.817,128.41h-.489l-5.806-1.452L122.7,126l-6.3-.489H109.62L103.8,126l-5.822.963" transform="translate(366.698 334.413)" fill="none" stroke="#fff" stroke-linecap="round" stroke-linejoin="round" stroke-miterlimit="10" stroke-width="1"/><path d="M69.51,116.648l-.489-.473v-.489" transform="translate(64.136 231.796)" fill="none" stroke="#fff" stroke-linecap="round" stroke-linejoin="round" stroke-miterlimit="10" stroke-width="1"/><path d="M103.893,143.732,103.4,138.4l-.473-.489" transform="translate(418.471 464.028)" fill="none" stroke="#fff" stroke-linecap="round" stroke-linejoin="round" stroke-miterlimit="10" stroke-width="1"/><path d="M102.972,154.891v-1.941l.489-14.531" transform="translate(418.899 469.344)" fill="none" stroke="#fff" stroke-linecap="round" stroke-linejoin="round" stroke-miterlimit="10" stroke-width="1"/><path d="M101.321,149.981l2.919-1.452,2.9-2.9,1.941-2.43.963-2.9v-1.452" transform="translate(401.647 473.762)" fill="none" stroke="#fff" stroke-linecap="round" stroke-linejoin="round" stroke-miterlimit="10" stroke-width="1"/><path d="M69.561,124.835l-.489-.978v-.963l-.473-.963v-.489" transform="translate(59.716 291.949)" fill="none" stroke="#fff" stroke-linecap="round" stroke-linejoin="round" stroke-miterlimit="10" stroke-width="1"/><path d="M65.84,156.918l-.978-5.333-.962-8.252.489-8.725.962-8.236,2.43-8.236,1.451-4.355" transform="translate(10.613 211.894)" fill="none" stroke="#fff" stroke-linecap="round" stroke-linejoin="round" stroke-miterlimit="10" stroke-width="1"/><path d="M66.335,103.748v.489l.473,1.451-.473,1.941v1.941l-.489,1.452" transform="translate(30.96 107.051)" fill="none" stroke="#fff" stroke-linecap="round" stroke-linejoin="round" stroke-miterlimit="10" stroke-width="1"/><path d="M63.357,129.994l-.473,8.252.962,8.236,1.941,8.725,2.9,8.725,3.881,8.236" transform="translate(0 381.305)" fill="none" stroke="#fff" stroke-linecap="round" stroke-linejoin="round" stroke-miterlimit="10" stroke-width="1"/><path d="M64.7,123.258l.473-1.452.489-.963.962-.978.978-.489.962-.473" transform="translate(19.022 265.419)" fill="none" stroke="#fff" stroke-linecap="round" stroke-linejoin="round" stroke-miterlimit="10" stroke-width="1"/><path d="M103.015,138.419l8.725,5.317" transform="translate(419.349 469.341)" fill="none" stroke="#fff" stroke-linecap="round" stroke-linejoin="round" stroke-miterlimit="10" stroke-width="1"/><path d="M103.969,115.982l-4.844.489-6.311.473-5.806.978-5.333,1.452-4.844,1.941-3.881,2.414-3.392,2.43-1.941,2.9-1.451,3.392-.489,2.919.489,3.392,1.451,3.392,2.43,2.9,3.392,2.9,4.355,2.43,4.844,1.941,5.333,1.94,5.822,1.452,6.3.489.978.473" transform="translate(29.189 234.889)" fill="none" stroke="#fff" stroke-linecap="round" stroke-linejoin="round" stroke-miterlimit="10" stroke-width="1"/><path d="M78.769,112.045l-5.333,8.236-3.865,8.725-2.919,8.725-1.941,8.725-.473,8.725.473,9.214,1.941,8.725,2.919,8.725,3.865,8.725" transform="translate(14.155 193.749)" fill="none" stroke="#fff" stroke-linecap="round" stroke-linejoin="round" stroke-miterlimit="10" stroke-width="1"/><path d="M108.17,143.554,65.507,112.045" transform="translate(27.417 193.749)" fill="none" stroke="#fff" stroke-linecap="round" stroke-linejoin="round" stroke-miterlimit="10" stroke-width="1"/><path d="M82.044,119.157H79.125l-6.3.489-5.333.963" transform="translate(48.21 268.065)" fill="none" stroke="#fff" stroke-linecap="round" stroke-linejoin="round" stroke-miterlimit="10" stroke-width="1"/><path d="M65.846,119.045l.962,1.941.978,1.941,1.451,1.452.962.978,1.467.963,1.452.489.962.489,1.452-.489.978-.489.489-.963.962-.978.489-1.941V117.1l-.489-2.414-.489-1.941-.962-1.941-.978-1.941-.962-1.941-1.451-.963-1.452-1.451-.978-.489-1.452-.489h-.962l-1.467.489" transform="translate(30.96 104.83)" fill="none" stroke="#fff" stroke-linecap="round" stroke-linejoin="round" stroke-miterlimit="10" stroke-width="1"/><path d="M66.419,103.07l-.489,5.822" transform="translate(31.838 99.966)" fill="none" stroke="#fff" stroke-linecap="round" stroke-linejoin="round" stroke-miterlimit="10" stroke-width="1"/><path d="M74.7,104.544,71.306,102.6l-2.43.489-1.452,1.452-.962,2.43-.489.963" transform="translate(32.284 95.092)" fill="none" stroke="#fff" stroke-linecap="round" stroke-linejoin="round" stroke-miterlimit="10" stroke-width="1"/><path d="M82.734,114.417l-16-11.644" transform="translate(40.248 96.863)" fill="none" stroke="#fff" stroke-linecap="round" stroke-linejoin="round" stroke-miterlimit="10" stroke-width="1"/><path d="M72.976,113.478l-4.844-9.688" transform="translate(54.848 107.489)" fill="none" stroke="#fff" stroke-linecap="round" stroke-linejoin="round" stroke-miterlimit="10" stroke-width="1"/><path d="M73.888,110.458l-2.9-2.43-2.43-3.392" transform="translate(59.269 116.335)" fill="none" stroke="#fff" stroke-linecap="round" stroke-linejoin="round" stroke-miterlimit="10" stroke-width="1"/><path d="M65.338,112h1.452l.489.489" transform="translate(25.646 193.3)" fill="none" stroke="#fff" stroke-linecap="round" stroke-linejoin="round" stroke-miterlimit="10" stroke-width="1"/><path d="M71.16,104.89l-5.333,80.955-.489.473" transform="translate(25.646 118.984)" fill="none" stroke="#fff" stroke-linecap="round" stroke-linejoin="round" stroke-miterlimit="10" stroke-width="1"/><path d="M69.984,105.017H69.51v.489h-.489v.978" transform="translate(64.137 120.311)" fill="none" stroke="#fff" stroke-linecap="round" stroke-linejoin="round" stroke-miterlimit="10" stroke-width="1"/><path d="M102.972,139.858l9.214,5.333" transform="translate(418.899 484.378)" fill="none" stroke="#fff" stroke-linecap="round" stroke-linejoin="round" stroke-miterlimit="10" stroke-width="1"/><path d="M65.3,112h.473" transform="translate(25.215 193.3)" fill="none" stroke="#fff" stroke-linecap="round" stroke-linejoin="round" stroke-miterlimit="10" stroke-width="1"/><path d="M68.768,104.51l1.941,3.392,1.452,1.941.473.473" transform="translate(61.486 115.014)" fill="none" stroke="#fff" stroke-linecap="round" stroke-linejoin="round" stroke-miterlimit="10" stroke-width="1"/><path d="M70.985,104.51H70.5V105h-.978l-.473.473h-.489v.489" transform="translate(59.269 115.014)" fill="none" stroke="#fff" stroke-linecap="round" stroke-linejoin="round" stroke-miterlimit="10" stroke-width="1"/><path d="M68.343,103.7l1.467,2.43,3.392,6.784" transform="translate(57.052 106.602)" fill="none" stroke="#fff" stroke-linecap="round" stroke-linejoin="round" stroke-miterlimit="10" stroke-width="1"/><path d="M70.546,103.7h-.962l-.489.489h-.473v.489h-.489" transform="translate(54.849 106.602)" fill="none" stroke="#fff" stroke-linecap="round" stroke-linejoin="round" stroke-miterlimit="10" stroke-width="1"/><path d="M68.3,103.621l.473.963" transform="translate(56.62 105.724)" fill="none" stroke="#fff" stroke-linecap="round" stroke-linejoin="round" stroke-miterlimit="10" stroke-width="1"/><path d="M81.871,101.927l-1.941,2.43-1.941,2.414-1.941,2.43-1.941,2.414-2.9,4.86-1.451,2.414-1.452,2.43" transform="translate(56.62 88.023)" fill="none" stroke="#fff" stroke-linecap="round" stroke-linejoin="round" stroke-miterlimit="10" stroke-width="1"/><path d="M69.487,101.927l1.941,3.881" transform="translate(69.004 88.023)" fill="none" stroke="#fff" stroke-linecap="round" stroke-linejoin="round" stroke-miterlimit="10" stroke-width="1"/><path d="M70.073,103.621l-.489.473h-.962v.489h-.489" transform="translate(54.849 105.724)" fill="none" stroke="#fff" stroke-linecap="round" stroke-linejoin="round" stroke-miterlimit="10" stroke-width="1"/><path d="M69.457,109.9l-.489-2.414-.489-2.43-.473-.963v-.978" transform="translate(53.524 100.41)" fill="none" stroke="#fff" stroke-linecap="round" stroke-linejoin="round" stroke-miterlimit="10" stroke-width="1"/><path d="M68.006,103.112l.473.489,1.941,3.392.978,1.941" transform="translate(53.524 100.405)" fill="none" stroke="#fff" stroke-linecap="round" stroke-linejoin="round" stroke-miterlimit="10" stroke-width="1"/><path d="M66.735,106.747v-.963l.489-.489v-.489l.489-.963.473-.489.489-.473h.962l.489-.489" transform="translate(40.247 92.889)" fill="none" stroke="#fff" stroke-linecap="round" stroke-linejoin="round" stroke-miterlimit="10" stroke-width="1"/><path d="M67.031,102.393l11.155,8.236" transform="translate(43.343 92.892)" fill="none" stroke="#fff" stroke-linecap="round" stroke-linejoin="round" stroke-miterlimit="10" stroke-width="1"/><path d="M68.132,104.682V103.7" transform="translate(54.849 106.598)" fill="none" stroke="#fff" stroke-linecap="round" stroke-linejoin="round" stroke-miterlimit="10" stroke-width="1"/><path d="M68.006,119.484l1.452-2.43,1.452-1.925,2.9-4.859,1.941-1.925,1.452-2.43,1.941-1.941,1.941-2.43" transform="translate(53.524 84.033)" fill="none" stroke="#fff" stroke-linecap="round" stroke-linejoin="round" stroke-miterlimit="10" stroke-width="1"/><path d="M69.148,101.546l3.881,3.881v.489" transform="translate(65.461 84.042)" fill="none" stroke="#fff" stroke-linecap="round" stroke-linejoin="round" stroke-miterlimit="10" stroke-width="1"/><path d="M80.127,100.953l-1.941,1.941-1.451,1.941-1.941,1.941-1.941,2.43L71.4,111.13l-1.467,1.94-1.452,2.43-1.452,1.94" transform="translate(43.344 77.845)" fill="none" stroke="#fff" stroke-linecap="round" stroke-linejoin="round" stroke-miterlimit="10" stroke-width="1"/><path d="M68.175,100.953l11.139,6.784" transform="translate(55.295 77.845)" fill="none" stroke="#fff" stroke-linecap="round" stroke-linejoin="round" stroke-miterlimit="10" stroke-width="1"/><path d="M67.413,102.277l.473-.473,2.43-.978h3.392l2.43,1.452" transform="translate(47.332 76.521)" fill="none" stroke="#fff" stroke-linecap="round" stroke-linejoin="round" stroke-miterlimit="10" stroke-width="1"/><path d="M66.293,104.383l-.489,3.866.489,1.941" transform="translate(30.513 113.687)" fill="none" stroke="#fff" stroke-linecap="round" stroke-linejoin="round" stroke-miterlimit="10" stroke-width="1"/><path d="M66.362,103.578l-.473.489v1.452" transform="translate(31.406 105.275)" fill="none" stroke="#fff" stroke-linecap="round" stroke-linejoin="round" stroke-miterlimit="10" stroke-width="1"/></g></svg>